Commissioner-BlackItalic.ufo
<glyph name="plus" format="2">
  <advance width="1220"/>
  <unicode hex="002B"/>
  <outline>
    <contour>
      <point x="324" y="88" type="curve"/>
      <point x="720" y="88" type="line"/>
      <point x="752" y="238"/>
      <point x="782" y="380"/>
      <point x="808" y="502" type="curve"/>
      <point x="856" y="728" type="line"/>
      <point x="884" y="858"/>
      <point x="914" y="998"/>
      <point x="946" y="1148" type="curve"/>
      <point x="550" y="1148" type="line"/>
      <point x="518" y="998"/>
      <point x="488" y="856"/>
      <point x="460" y="726" type="curve"/>
      <point x="412" y="502" type="line"/>
      <point x="386" y="380"/>
      <point x="356" y="238"/>
    </contour>
    <contour>
      <point x="64" y="428" type="line"/>
      <point x="214" y="428"/>
      <point x="356" y="428"/>
      <point x="480" y="428" type="curve"/>
      <point x="708" y="428" type="line"/>
      <point x="832" y="428"/>
      <point x="974" y="428"/>
      <point x="1124" y="428" type="curve"/>
      <point x="1206" y="808" type="line"/>
      <point x="1056" y="808"/>
      <point x="914" y="808"/>
      <point x="790" y="808" type="curve"/>
      <point x="562" y="808" type="line"/>
      <point x="438" y="808"/>
      <point x="296" y="808"/>
      <point x="146" y="808" type="curve"/>
    </contour>
  </outline>
</glyph>
<glyph name="one" format="2">
  <advance width="960"/>
  <unicode hex="0031"/>
  <outline>
    <contour>
      <point x="182" y="764" type="line"/>
      <point x="358" y="830"/>
      <point x="530" y="898"/>
      <point x="704" y="964" type="curve"/>
      <point x="808" y="1392" type="line"/>
      <point x="588" y="1304"/>
      <point x="370" y="1216"/>
      <point x="152" y="1128" type="curve"/>
    </contour>
    <contour>
      <point x="274" y="0" type="curve"/>
      <point x="734" y="0" type="line"/>
      <point x="764" y="138"/>
      <point x="788" y="258"/>
      <point x="824" y="426" type="curve"/>
      <point x="924" y="898" type="line"/>
      <point x="956" y="1056"/>
      <point x="990" y="1214"/>
      <point x="1024" y="1380" type="curve"/>
      <point x="808" y="1392" type="line"/>
      <point x="526" y="1194" type="line"/>
      <point x="498" y="1062"/>
      <point x="470" y="932"/>
      <point x="442" y="800" type="curve"/>
      <point x="364" y="426" type="line"/>
      <point x="328" y="258"/>
      <point x="304" y="138"/>
    </contour>
  </outline>
</glyph>
<glyph name="five" format="2">
  <advance width="1186"/>
  <unicode hex="0035"/>
  <outline>
    <contour>
      <point x="480" y="-32" type="curve" smooth="yes"/>
      <point x="878" y="-32"/>
      <point x="1050" y="124"/>
      <point x="1102" y="378" type="curve" smooth="yes"/>
      <point x="1160" y="666"/>
      <point x="1002" y="862"/>
      <point x="786" y="862" type="curve" smooth="yes"/>
      <point x="718" y="862"/>
      <point x="666" y="844"/>
      <point x="612" y="818" type="curve"/>
      <point x="580" y="818" type="line"/>
      <point x="592" y="872" type="line"/>
      <point x="614" y="958"/>
      <point x="636" y="1046"/>
      <point x="656" y="1132" type="curve"/>
      <point x="516" y="992" type="line"/>
      <point x="710" y="992" type="line"/>
      <point x="862" y="992"/>
      <point x="1018" y="992"/>
      <point x="1172" y="992" type="curve"/>
      <point x="1252" y="1380" type="line"/>
      <point x="308" y="1380" type="line"/>
      <point x="272" y="1208"/>
      <point x="230" y="1008"/>
      <point x="186" y="800" type="curve"/>
      <point x="134" y="552" type="line"/>
      <point x="326" y="538" type="line"/>
      <point x="382" y="564"/>
      <point x="452" y="574"/>
      <point x="506" y="574" type="curve"/>
      <point x="616" y="574"/>
      <point x="656" y="524"/>
      <point x="642" y="452" type="curve" smooth="yes"/>
      <point x="626" y="378"/>
      <point x="570" y="348"/>
      <point x="482" y="348" type="curve"/>
      <point x="358" y="348"/>
      <point x="202" y="404"/>
      <point x="84" y="486" type="curve"/>
      <point x="-30" y="82" type="line"/>
      <point x="60" y="22"/>
      <point x="286" y="-32"/>
    </contour>
  </outline>
</glyph>
<glyph name="seven" format="2">
  <advance width="1146"/>
  <unicode hex="0037"/>
  <outline>
    <contour>
      <point x="32" y="0" type="curve"/>
      <point x="554" y="0" type="line"/>
      <point x="642" y="142"/>
      <point x="728" y="282"/>
      <point x="814" y="422" type="curve"/>
      <point x="962" y="662" type="line"/>
      <point x="1048" y="802"/>
      <point x="1132" y="938"/>
      <point x="1218" y="1078" type="curve"/>
      <point x="1280" y="1380" type="line"/>
      <point x="234" y="1380" type="line"/>
      <point x="154" y="992" type="line"/>
      <point x="294" y="992"/>
      <point x="432" y="992"/>
      <point x="570" y="992" type="curve"/>
      <point x="804" y="992" type="line"/>
      <point x="712" y="1078" type="line"/>
      <point x="658" y="992"/>
      <point x="606" y="910"/>
      <point x="548" y="818" type="curve"/>
      <point x="326" y="466" type="line"/>
      <point x="228" y="310"/>
      <point x="132" y="158"/>
    </contour>
  </outline>
</glyph>
<glyph name="eight" format="2">
  <advance width="1262"/>
  <unicode hex="0038"/>
  <outline>
    <contour>
      <point x="592" y="-32" type="curve" smooth="yes"/>
      <point x="958" y="-32"/>
      <point x="1124" y="100"/>
      <point x="1174" y="332" type="curve" smooth="yes"/>
      <point x="1222" y="554"/>
      <point x="1106" y="662"/>
      <point x="982" y="708" type="curve"/>
      <point x="988" y="740" type="line"/>
      <point x="1144" y="760"/>
      <point x="1250" y="830"/>
      <point x="1282" y="984" type="curve" smooth="yes"/>
      <point x="1330" y="1216"/>
      <point x="1142" y="1412"/>
      <point x="758" y="1412" type="curve" smooth="yes"/>
      <point x="464" y="1412"/>
      <point x="256" y="1310"/>
      <point x="212" y="1098" type="curve" smooth="yes"/>
      <point x="176" y="928"/>
      <point x="266" y="812"/>
      <point x="384" y="778" type="curve"/>
      <point x="378" y="746" type="line"/>
      <point x="234" y="722"/>
      <point x="86" y="658"/>
      <point x="42" y="452" type="curve" smooth="yes"/>
      <point x="-12" y="202"/>
      <point x="142" y="-32"/>
    </contour>
    <contour>
      <point x="610" y="336" type="curve"/>
      <point x="526" y="336"/>
      <point x="486" y="396"/>
      <point x="500" y="456" type="curve" smooth="yes"/>
      <point x="514" y="520"/>
      <point x="558" y="548"/>
      <point x="628" y="548" type="curve"/>
      <point x="704" y="548"/>
      <point x="750" y="496"/>
      <point x="738" y="432" type="curve" smooth="yes"/>
      <point x="726" y="372"/>
      <point x="688" y="336"/>
    </contour>
    <contour>
      <point x="722" y="848" type="curve"/>
      <point x="654" y="848"/>
      <point x="616" y="904"/>
      <point x="630" y="968" type="curve" smooth="yes"/>
      <point x="646" y="1040"/>
      <point x="688" y="1066"/>
      <point x="744" y="1066" type="curve"/>
      <point x="806" y="1066"/>
      <point x="848" y="1018"/>
      <point x="834" y="946" type="curve" smooth="yes"/>
      <point x="822" y="882"/>
      <point x="778" y="848"/>
    </contour>
  </outline>
</glyph>
<glyph name="A" format="2">
  <advance width="1506"/>
  <unicode hex="0041"/>
  <anchor x="644" y="0" name="bottom"/>
  <anchor x="1372" y="0" name="ogonek"/>
  <anchor x="944" y="1426" name="top"/>
  <outline>
    <contour>
      <point x="-82" y="0" type="curve"/>
      <point x="438" y="0" type="line"/>
      <point x="492" y="132"/>
      <point x="552" y="280"/>
      <point x="606" y="414" type="curve"/>
      <point x="852" y="1020" type="line"/>
      <point x="884" y="1020" type="line"/>
      <point x="888" y="410" type="line"/>
      <point x="888" y="280"/>
      <point x="890" y="134"/>
      <point x="890" y="0" type="curve"/>
      <point x="1372" y="0" type="line"/>
      <point x="1360" y="150"/>
      <point x="1346" y="326"/>
      <point x="1334" y="476" type="curve"/>
      <point x="1294" y="974" type="line"/>
      <point x="1280" y="1148"/>
      <point x="1270" y="1276"/>
      <point x="1258" y="1426" type="curve"/>
      <point x="632" y="1426" type="line"/>
      <point x="558" y="1278"/>
      <point x="490" y="1142"/>
      <point x="406" y="974" type="curve"/>
      <point x="162" y="486" type="line"/>
      <point x="84" y="332"/>
      <point x="-4" y="156"/>
    </contour>
    <contour>
      <point x="398" y="232" type="line"/>
      <point x="1044" y="232" type="line"/>
      <point x="1072" y="592" type="line"/>
      <point x="528" y="592" type="line"/>
    </contour>
  </outline>
</glyph>
<glyph name="D" format="2">
  <advance width="1460"/>
  <unicode hex="0044"/>
  <anchor x="604" y="0" name="bottom"/>
  <anchor x="775" y="714" name="center"/>
  <anchor x="904" y="1426" name="top"/>
  <outline>
    <contour>
      <point x="-16" y="0" type="curve"/>
      <point x="148" y="0"/>
      <point x="336" y="0"/>
      <point x="564" y="0" type="curve"/>
      <point x="1142" y="0"/>
      <point x="1364" y="260"/>
      <point x="1446" y="662" type="curve" smooth="yes"/>
      <point x="1532" y="1086"/>
      <point x="1318" y="1426"/>
      <point x="878" y="1426" type="curve"/>
      <point x="660" y="1426"/>
      <point x="432" y="1426"/>
      <point x="288" y="1426" type="curve"/>
      <point x="254" y="1270"/>
      <point x="226" y="1138"/>
      <point x="186" y="948" type="curve"/>
      <point x="82" y="458" type="line"/>
      <point x="42" y="272"/>
      <point x="16" y="148"/>
    </contour>
    <contour>
      <point x="560" y="386" type="line"/>
      <point x="572" y="444"/>
      <point x="584" y="502"/>
      <point x="602" y="590" type="curve"/>
      <point x="652" y="826" type="line"/>
      <point x="672" y="920"/>
      <point x="684" y="976"/>
      <point x="698" y="1040" type="curve"/>
      <point x="762" y="1040" type="line"/>
      <point x="932" y="1040"/>
      <point x="982" y="890"/>
      <point x="942" y="702" type="curve" smooth="yes"/>
      <point x="904" y="522"/>
      <point x="814" y="386"/>
      <point x="610" y="386" type="curve"/>
    </contour>
  </outline>
</glyph>
<glyph name="E" format="2">
  <advance width="1200"/>
  <unicode hex="0045"/>
  <anchor x="500" y="0" name="bottom"/>
  <anchor x="1014" y="0" name="ogonek"/>
  <anchor x="800" y="1426" name="top"/>
  <anchor x="260" y="1426" name="topleft"/>
  <outline>
    <contour>
      <point x="-16" y="0" type="curve"/>
      <point x="466" y="0" type="line"/>
      <point x="484" y="80" type="line"/>
      <point x="514" y="228"/>
      <point x="542" y="356"/>
      <point x="580" y="538" type="curve"/>
      <point x="648" y="868" type="line"/>
      <point x="688" y="1058"/>
      <point x="718" y="1192"/>
      <point x="750" y="1346" type="curve"/>
      <point x="766" y="1426" type="line"/>
      <point x="288" y="1426" type="line"/>
      <point x="254" y="1270"/>
      <point x="226" y="1138"/>
      <point x="186" y="948" type="curve"/>
      <point x="82" y="458" type="line"/>
      <point x="42" y="272"/>
      <point x="16" y="148"/>
    </contour>
    <contour>
      <point x="414" y="0" type="line"/>
      <point x="1014" y="0" type="line"/>
      <point x="1096" y="386" type="line"/>
      <point x="978" y="386"/>
      <point x="852" y="386"/>
      <point x="710" y="386" type="curve"/>
      <point x="496" y="386" type="line"/>
    </contour>
    <contour>
      <point x="466" y="542" type="line"/>
      <point x="710" y="542" type="line"/>
      <point x="868" y="542"/>
      <point x="976" y="542"/>
      <point x="1092" y="542" type="curve"/>
      <point x="1164" y="886" type="line"/>
      <point x="1054" y="886"/>
      <point x="946" y="886"/>
      <point x="782" y="886" type="curve"/>
      <point x="538" y="886" type="line"/>
    </contour>
    <contour>
      <point x="602" y="1040" type="line"/>
      <point x="816" y="1040" type="line"/>
      <point x="988" y="1040"/>
      <point x="1108" y="1040"/>
      <point x="1220" y="1040" type="curve"/>
      <point x="1300" y="1426" type="line"/>
      <point x="682" y="1426" type="line"/>
    </contour>
  </outline>
</glyph>
<glyph name="G" format="2">
  <advance width="1450"/>
  <unicode hex="0047"/>
  <anchor x="680" y="0" name="bottom"/>
  <anchor x="980" y="1426" name="top"/>
  <outline>
    <contour>
      <point x="808" y="-30" type="curve" smooth="yes"/>
      <point x="972" y="-30"/>
      <point x="1164" y="0"/>
      <point x="1260" y="36" type="curve"/>
      <point x="1290" y="462" type="line"/>
      <point x="1134" y="386"/>
      <point x="1020" y="354"/>
      <point x="848" y="354" type="curve"/>
      <point x="640" y="354"/>
      <point x="560" y="548"/>
      <point x="602" y="746" type="curve" smooth="yes"/>
      <point x="652" y="984"/>
      <point x="816" y="1048"/>
      <point x="954" y="1048" type="curve"/>
      <point x="1040" y="1048"/>
      <point x="1198" y="1024"/>
      <point x="1388" y="906" type="curve"/>
      <point x="1518" y="1348" type="line"/>
      <point x="1378" y="1408"/>
      <point x="1170" y="1458"/>
      <point x="942" y="1458" type="curve" smooth="yes"/>
      <point x="484" y="1458"/>
      <point x="202" y="1248"/>
      <point x="110" y="806" type="curve" smooth="yes"/>
      <point x="18" y="366"/>
      <point x="228" y="-30"/>
    </contour>
    <contour>
      <point x="800" y="26" type="curve"/>
      <point x="1260" y="36" type="line"/>
      <point x="1290" y="182"/>
      <point x="1314" y="294"/>
      <point x="1340" y="414" type="curve"/>
      <point x="1368" y="552"/>
      <point x="1390" y="650"/>
      <point x="1412" y="762" type="curve"/>
      <point x="954" y="762" type="line"/>
      <point x="932" y="650"/>
      <point x="910" y="552"/>
      <point x="882" y="414" type="curve"/>
      <point x="856" y="294"/>
      <point x="832" y="182"/>
    </contour>
  </outline>
</glyph>
<glyph name="J" format="2">
  <advance width="700"/>
  <unicode hex="004A"/>
  <anchor x="240" y="0" name="bottom"/>
  <anchor x="540" y="1426" name="top"/>
  <outline>
    <contour>
      <point x="-202" y="-304" type="curve"/>
      <point x="252" y="-304" type="line"/>
      <point x="378" y="-210"/>
      <point x="478" y="-70"/>
      <point x="526" y="158" type="curve" smooth="yes"/>
      <point x="564" y="338"/>
      <point x="606" y="534"/>
      <point x="648" y="734" type="curve"/>
      <point x="694" y="948" type="line"/>
      <point x="734" y="1138"/>
      <point x="762" y="1270"/>
      <point x="796" y="1426" type="curve"/>
      <point x="302" y="1426" type="line"/>
      <point x="268" y="1270"/>
      <point x="240" y="1138"/>
      <point x="200" y="948" type="curve"/>
      <point x="154" y="734" type="line"/>
      <point x="38" y="182" type="line"/>
      <point x="2" y="16"/>
      <point x="-76" y="-154"/>
    </contour>
  </outline>
</glyph>
<glyph name="K" format="2">
  <advance width="1458"/>
  <unicode hex="004B"/>
  <guideline x="422" y="563" angle="56.7251"/>
  <anchor x="636" y="0" name="bottom"/>
  <anchor x="936" y="1426" name="top"/>
  <outline>
    <contour>
      <point x="780" y="0" type="curve"/>
      <point x="1336" y="0" type="line"/>
      <point x="1288" y="130"/>
      <point x="1200" y="352"/>
      <point x="1138" y="514" type="curve"/>
      <point x="998" y="872" type="line"/>
      <point x="994" y="656" type="line"/>
      <point x="1238" y="956" type="line"/>
      <point x="1368" y="1114"/>
      <point x="1490" y="1268"/>
      <point x="1620" y="1426" type="curve"/>
      <point x="1042" y="1426" type="line"/>
      <point x="960" y="1302"/>
      <point x="902" y="1214"/>
      <point x="844" y="1126" type="curve"/>
      <point x="718" y="934" type="line"/>
      <point x="640" y="934" type="line"/>
      <point x="562" y="556" type="line"/>
      <point x="648" y="556" type="line"/>
      <point x="706" y="312" type="line"/>
      <point x="730" y="212"/>
      <point x="752" y="114"/>
    </contour>
    <contour>
      <point x="-16" y="0" type="curve"/>
      <point x="474" y="0" type="line"/>
      <point x="506" y="148"/>
      <point x="532" y="272"/>
      <point x="572" y="458" type="curve"/>
      <point x="676" y="948" type="line"/>
      <point x="716" y="1138"/>
      <point x="744" y="1270"/>
      <point x="778" y="1426" type="curve"/>
      <point x="288" y="1426" type="line"/>
      <point x="254" y="1270"/>
      <point x="226" y="1138"/>
      <point x="186" y="948" type="curve"/>
      <point x="82" y="458" type="line"/>
      <point x="42" y="272"/>
      <point x="16" y="148"/>
    </contour>
  </outline>
</glyph>
<glyph name="M" format="2">
  <advance width="1940"/>
  <unicode hex="004D"/>
  <anchor x="864" y="0" name="bottom"/>
  <anchor x="1164" y="1426" name="top"/>
  <outline>
    <contour>
      <point x="-42" y="0" type="curve"/>
      <point x="410" y="0" type="line"/>
      <point x="456" y="142"/>
      <point x="498" y="270"/>
      <point x="536" y="382" type="curve"/>
      <point x="618" y="624" type="line"/>
      <point x="650" y="624" type="line"/>
      <point x="680" y="366" type="line"/>
      <point x="694" y="242"/>
      <point x="710" y="116"/>
      <point x="722" y="0" type="curve"/>
      <point x="1044" y="0" type="line"/>
      <point x="1094" y="114"/>
      <point x="1152" y="238"/>
      <point x="1210" y="366" type="curve"/>
      <point x="1326" y="624" type="line"/>
      <point x="1358" y="624" type="line"/>
      <point x="1336" y="382" type="line"/>
      <point x="1326" y="270"/>
      <point x="1316" y="142"/>
      <point x="1304" y="0" type="curve"/>
      <point x="1770" y="0" type="line"/>
      <point x="1784" y="146"/>
      <point x="1792" y="284"/>
      <point x="1806" y="458" type="curve"/>
      <point x="1844" y="944" type="line"/>
      <point x="1858" y="1118"/>
      <point x="1870" y="1272"/>
      <point x="1882" y="1426" type="curve"/>
      <point x="1374" y="1426" type="line"/>
      <point x="1306" y="1290"/>
      <point x="1258" y="1192"/>
      <point x="1202" y="1080" type="curve"/>
      <point x="1038" y="754" type="line"/>
      <point x="1008" y="754" type="line"/>
      <point x="966" y="1080" type="line"/>
      <point x="952" y="1192"/>
      <point x="938" y="1296"/>
      <point x="922" y="1426" type="curve"/>
      <point x="436" y="1426" type="line"/>
      <point x="384" y="1268"/>
      <point x="332" y="1118"/>
      <point x="274" y="944" type="curve"/>
      <point x="112" y="458" type="line"/>
      <point x="54" y="286"/>
      <point x="6" y="140"/>
    </contour>
  </outline>
</glyph>
<glyph name="T" format="2">
  <advance width="1302"/>
  <unicode hex="0054"/>
  <anchor x="548" y="0" name="bottom"/>
  <anchor x="672" y="598" name="center"/>
  <anchor x="848" y="1426" name="top"/>
  <outline>
    <contour>
      <point x="298" y="0" type="curve"/>
      <point x="788" y="0" type="line"/>
      <point x="820" y="148"/>
      <point x="846" y="272"/>
      <point x="886" y="458" type="curve"/>
      <point x="974" y="868" type="line"/>
      <point x="1014" y="1058"/>
      <point x="1044" y="1192"/>
      <point x="1076" y="1346" type="curve"/>
      <point x="1092" y="1426" type="line"/>
      <point x="602" y="1426" type="line"/>
      <point x="586" y="1346" type="line"/>
      <point x="554" y="1192"/>
      <point x="524" y="1058"/>
      <point x="484" y="868" type="curve"/>
      <point x="396" y="458" type="line"/>
      <point x="356" y="272"/>
      <point x="330" y="148"/>
    </contour>
    <contour>
      <point x="148" y="1002" type="line"/>
      <point x="244" y="1002"/>
      <point x="346" y="1002"/>
      <point x="486" y="1002" type="curve"/>
      <point x="596" y="1002" type="line"/>
      <point x="684" y="1426" type="line"/>
      <point x="236" y="1426" type="line"/>
    </contour>
    <contour>
      <point x="922" y="1002" type="line"/>
      <point x="1032" y="1002" type="line"/>
      <point x="1172" y="1002"/>
      <point x="1272" y="1002"/>
      <point x="1368" y="1002" type="curve"/>
      <point x="1458" y="1426" type="line"/>
      <point x="1010" y="1426" type="line"/>
    </contour>
  </outline>
</glyph>
<glyph name="V" format="2">
  <advance width="1472"/>
  <unicode hex="0056"/>
  <anchor x="632" y="0" name="bottom"/>
  <anchor x="932" y="1426" name="top"/>
  <outline>
    <contour>
      <point x="300" y="0" type="curve"/>
      <point x="954" y="0" type="line"/>
      <point x="1022" y="140"/>
      <point x="1102" y="310"/>
      <point x="1170" y="452" type="curve"/>
      <point x="1384" y="900" type="line"/>
      <point x="1458" y="1056"/>
      <point x="1552" y="1252"/>
      <point x="1634" y="1426" type="curve"/>
      <point x="1072" y="1426" type="line"/>
      <point x="1014" y="1266"/>
      <point x="952" y="1092"/>
      <point x="898" y="936" type="curve"/>
      <point x="738" y="494" type="line"/>
      <point x="706" y="494" type="line"/>
      <point x="724" y="934" type="line"/>
      <point x="732" y="1088"/>
      <point x="740" y="1272"/>
      <point x="746" y="1426" type="curve"/>
      <point x="230" y="1426" type="line"/>
      <point x="238" y="1258"/>
      <point x="248" y="1054"/>
      <point x="256" y="900" type="curve"/>
      <point x="278" y="452" type="line"/>
      <point x="284" y="314"/>
      <point x="294" y="142"/>
    </contour>
  </outline>
</glyph>
<glyph name="X" format="2">
  <advance width="1488"/>
  <unicode hex="0058"/>
  <outline>
    <contour>
      <point x="-72" y="0" type="curve"/>
      <point x="512" y="0" type="line"/>
      <point x="554" y="86"/>
      <point x="592" y="160"/>
      <point x="628" y="236" type="curve"/>
      <point x="716" y="414" type="line"/>
      <point x="748" y="414" type="line"/>
      <point x="772" y="236" type="line"/>
      <point x="782" y="164"/>
      <point x="792" y="86"/>
      <point x="804" y="0" type="curve"/>
      <point x="1354" y="0" type="line"/>
      <point x="1308" y="150"/>
      <point x="1266" y="286"/>
      <point x="1218" y="440" type="curve"/>
      <point x="1122" y="754" type="line"/>
      <point x="1098" y="634" type="line"/>
      <point x="1332" y="988" type="line"/>
      <point x="1414" y="1112"/>
      <point x="1514" y="1262"/>
      <point x="1622" y="1426" type="curve"/>
      <point x="1046" y="1426" type="line"/>
      <point x="1000" y="1332"/>
      <point x="956" y="1242"/>
      <point x="916" y="1160" type="curve"/>
      <point x="840" y="1004" type="line"/>
      <point x="808" y="1004" type="line"/>
      <point x="786" y="1160" type="line"/>
      <point x="776" y="1242"/>
      <point x="762" y="1332"/>
      <point x="750" y="1426" type="curve"/>
      <point x="222" y="1426" type="line"/>
      <point x="268" y="1262"/>
      <point x="304" y="1124"/>
      <point x="342" y="988" type="curve"/>
      <point x="424" y="690" type="line"/>
      <point x="450" y="800" type="line"/>
      <point x="208" y="430" type="line"/>
      <point x="108" y="276"/>
      <point x="18" y="138"/>
    </contour>
  </outline>
</glyph>
<glyph name="bracketleft" format="2">
  <advance width="890"/>
  <unicode hex="005B"/>
  <outline>
    <contour>
      <point x="-50" y="-260" type="curve"/>
      <point x="350" y="-260" type="line"/>
      <point x="366" y="-180" type="line"/>
      <point x="398" y="-28"/>
      <point x="424" y="96"/>
      <point x="462" y="278" type="curve"/>
      <point x="616" y="1008" type="line"/>
      <point x="656" y="1198"/>
      <point x="684" y="1332"/>
      <point x="716" y="1486" type="curve"/>
      <point x="734" y="1566" type="line"/>
      <point x="334" y="1566" type="line"/>
      <point x="302" y="1412"/>
      <point x="274" y="1278"/>
      <point x="234" y="1088" type="curve"/>
      <point x="46" y="198" type="line"/>
      <point x="8" y="16"/>
      <point x="-20" y="-112"/>
    </contour>
    <contour>
      <point x="298" y="-260" type="line"/>
      <point x="670" y="-260" type="line"/>
      <point x="742" y="86" type="line"/>
      <point x="658" y="86"/>
      <point x="572" y="86"/>
      <point x="472" y="86" type="curve"/>
      <point x="370" y="86" type="line"/>
    </contour>
    <contour>
      <point x="576" y="1220" type="line"/>
      <point x="688" y="1220" type="line"/>
      <point x="808" y="1220"/>
      <point x="892" y="1220"/>
      <point x="970" y="1220" type="curve"/>
      <point x="1044" y="1566" type="line"/>
      <point x="650" y="1566" type="line"/>
    </contour>
  </outline>
</glyph>
<glyph name="backslash" format="2">
  <advance width="928"/>
  <unicode hex="005C"/>
  <outline>
    <contour>
      <point x="426" y="0" type="curve"/>
      <point x="820" y="0" type="line"/>
      <point x="796" y="148"/>
      <point x="776" y="274"/>
      <point x="748" y="456" type="curve"/>
      <point x="668" y="952" type="line"/>
      <point x="638" y="1140"/>
      <point x="616" y="1272"/>
      <point x="592" y="1426" type="curve"/>
      <point x="196" y="1426" type="line"/>
      <point x="222" y="1270"/>
      <point x="242" y="1140"/>
      <point x="274" y="948" type="curve"/>
      <point x="352" y="456" type="line"/>
      <point x="382" y="274"/>
      <point x="402" y="146"/>
    </contour>
  </outline>
</glyph>
<glyph name="h" format="2">
  <advance width="1168"/>
  <unicode hex="0068"/>
  <guideline x="147" y="743" angle="4.4708"/>
  <anchor x="484" y="0" name="bottom"/>
  <anchor x="656" y="818" name="center"/>
  <anchor x="748" y="1466" name="top"/>
  <outline>
    <contour>
      <point x="-36" y="0" type="curve"/>
      <point x="408" y="0" type="line"/>
      <point x="438" y="138"/>
      <point x="462" y="258"/>
      <point x="492" y="400" type="curve"/>
      <point x="530" y="582" type="line"/>
      <point x="560" y="616"/>
      <point x="588" y="636"/>
      <point x="624" y="636" type="curve" smooth="yes"/>
      <point x="674" y="636"/>
      <point x="678" y="578"/>
      <point x="664" y="510" type="curve"/>
      <point x="642" y="400" type="line"/>
      <point x="612" y="258"/>
      <point x="588" y="138"/>
      <point x="558" y="0" type="curve"/>
      <point x="1002" y="0" type="line"/>
      <point x="1032" y="138"/>
      <point x="1056" y="258"/>
      <point x="1092" y="426" type="curve"/>
      <point x="1108" y="504"/>
      <point x="1128" y="594"/>
      <point x="1140" y="652" type="curve" smooth="yes"/>
      <point x="1188" y="880"/>
      <point x="1104" y="1036"/>
      <point x="894" y="1036" type="curve" smooth="yes"/>
      <point x="796" y="1036"/>
      <point x="696" y="992"/>
      <point x="630" y="894" type="curve"/>
      <point x="598" y="894" type="line"/>
      <point x="616" y="986" type="line"/>
      <point x="656" y="1178"/>
      <point x="692" y="1346"/>
      <point x="724" y="1500" type="curve"/>
      <point x="274" y="1468" type="line"/>
      <point x="238" y="1298"/>
      <point x="206" y="1144"/>
      <point x="172" y="986" type="curve"/>
      <point x="54" y="426" type="line"/>
      <point x="18" y="258"/>
      <point x="-6" y="138"/>
    </contour>
  </outline>
</glyph>
<glyph name="l" format="2">
  <advance width="584"/>
  <unicode hex="006C"/>
  <anchor x="186" y="0" name="bottom"/>
  <anchor x="370" y="818" name="center"/>
  <anchor x="488" y="1466" name="top"/>
  <anchor x="658" y="1004" name="topright"/>
  <outline>
    <contour>
      <point x="-36" y="0" type="curve"/>
      <point x="408" y="0" type="line"/>
      <point x="438" y="138"/>
      <point x="462" y="258"/>
      <point x="498" y="426" type="curve"/>
      <point x="616" y="986" type="line"/>
      <point x="656" y="1178"/>
      <point x="692" y="1346"/>
      <point x="724" y="1500" type="curve"/>
      <point x="274" y="1468" type="line"/>
      <point x="238" y="1298"/>
      <point x="206" y="1144"/>
      <point x="172" y="986" type="curve"/>
      <point x="54" y="426" type="line"/>
      <point x="18" y="258"/>
      <point x="-6" y="138"/>
    </contour>
  </outline>
</glyph>
<glyph name="p" format="2">
  <advance width="1186"/>
  <unicode hex="0070"/>
  <outline>
    <contour>
      <point x="-120" y="-396" type="curve"/>
      <point x="326" y="-384" type="line"/>
      <point x="356" y="-246"/>
      <point x="380" y="-126"/>
      <point x="410" y="16" type="curve"/>
      <point x="426" y="90" type="line"/>
      <point x="448" y="90" type="line"/>
      <point x="490" y="8"/>
      <point x="594" y="-32"/>
      <point x="696" y="-32" type="curve" smooth="yes"/>
      <point x="928" y="-32"/>
      <point x="1080" y="182"/>
      <point x="1140" y="464" type="curve" smooth="yes"/>
      <point x="1204" y="768"/>
      <point x="1120" y="1036"/>
      <point x="860" y="1036" type="curve" smooth="yes"/>
      <point x="760" y="1036"/>
      <point x="666" y="988"/>
      <point x="586" y="880" type="curve"/>
      <point x="554" y="880" type="line"/>
      <point x="566" y="1024" type="line"/>
      <point x="176" y="1004" type="line"/>
      <point x="140" y="838"/>
      <point x="108" y="684"/>
      <point x="76" y="526" type="curve"/>
      <point x="-28" y="42" type="line"/>
      <point x="-64" y="-126"/>
      <point x="-90" y="-258"/>
    </contour>
    <contour>
      <point x="558" y="344" type="curve"/>
      <point x="528" y="344"/>
      <point x="502" y="360"/>
      <point x="490" y="380" type="curve"/>
      <point x="538" y="610" type="line"/>
      <point x="556" y="644"/>
      <point x="586" y="666"/>
      <point x="622" y="666" type="curve"/>
      <point x="688" y="666"/>
      <point x="708" y="574"/>
      <point x="692" y="496" type="curve" smooth="yes"/>
      <point x="674" y="410"/>
      <point x="626" y="344"/>
    </contour>
  </outline>
</glyph>
<glyph name="w" format="2">
  <advance width="1726"/>
  <unicode hex="0077"/>
  <anchor x="748" y="0" name="bottom"/>
  <anchor x="958" y="1004" name="top"/>
  <outline>
    <contour>
      <point x="196" y="0" type="curve"/>
      <point x="650" y="0" type="line"/>
      <point x="680" y="84"/>
      <point x="712" y="172"/>
      <point x="742" y="256" type="curve"/>
      <point x="800" y="418" type="line"/>
      <point x="828" y="418" type="line"/>
      <point x="822" y="266" type="line"/>
      <point x="818" y="178"/>
      <point x="814" y="84"/>
      <point x="810" y="0" type="curve"/>
      <point x="1308" y="0" type="line"/>
      <point x="1372" y="124"/>
      <point x="1438" y="252"/>
      <point x="1506" y="384" type="curve"/>
      <point x="1596" y="558" type="line"/>
      <point x="1674" y="710"/>
      <point x="1748" y="854"/>
      <point x="1826" y="1004" type="curve"/>
      <point x="1322" y="1004" type="line"/>
      <point x="1290" y="906"/>
      <point x="1250" y="780"/>
      <point x="1214" y="670" type="curve"/>
      <point x="1144" y="454" type="line"/>
      <point x="1114" y="454" type="line"/>
      <point x="1128" y="666" type="line"/>
      <point x="1136" y="778"/>
      <point x="1144" y="896"/>
      <point x="1152" y="1004" type="curve"/>
      <point x="744" y="1004" type="line"/>
      <point x="708" y="892"/>
      <point x="672" y="782"/>
      <point x="634" y="666" type="curve"/>
      <point x="564" y="454" type="line"/>
      <point x="534" y="454" type="line"/>
      <point x="548" y="666" type="line"/>
      <point x="556" y="778"/>
      <point x="564" y="904"/>
      <point x="572" y="1016" type="curve"/>
      <point x="112" y="1004" type="line"/>
      <point x="124" y="854"/>
      <point x="138" y="708"/>
      <point x="150" y="558" type="curve"/>
      <point x="164" y="382" type="line"/>
      <point x="174" y="254"/>
      <point x="186" y="126"/>
    </contour>
  </outline>
</glyph>
<glyph name="z" format="2">
  <advance width="1072"/>
  <unicode hex="007A"/>
  <anchor x="428" y="0" name="bottom"/>
  <anchor x="534" y="502" name="center"/>
  <anchor x="640" y="1004" name="top"/>
  <outline>
    <contour>
      <point x="-58" y="0" type="line"/>
      <point x="918" y="0" type="line"/>
      <point x="986" y="320" type="line"/>
      <point x="888" y="320"/>
      <point x="756" y="320"/>
      <point x="676" y="320" type="curve"/>
      <point x="500" y="320" type="line"/>
      <point x="544" y="232" type="line"/>
      <point x="784" y="480" type="line"/>
      <point x="874" y="576"/>
      <point x="978" y="686"/>
      <point x="1054" y="764" type="curve"/>
      <point x="1104" y="1004" type="line"/>
      <point x="168" y="1004" type="line"/>
      <point x="100" y="682" type="line"/>
      <point x="208" y="682"/>
      <point x="346" y="682"/>
      <point x="426" y="682" type="curve"/>
      <point x="590" y="682" type="line"/>
      <point x="528" y="792" type="line"/>
      <point x="268" y="508" type="line"/>
      <point x="180" y="414"/>
      <point x="86" y="310"/>
      <point x="-16" y="200" type="curve"/>
    </contour>
  </outline>
</glyph>
<glyph name="currency" format="2">
  <advance width="1368"/>
  <unicode hex="00A4"/>
  <outline>
    <contour>
      <point x="676" y="150" type="curve" smooth="yes"/>
      <point x="966" y="150"/>
      <point x="1156" y="272"/>
      <point x="1218" y="562" type="curve" smooth="yes"/>
      <point x="1280" y="856"/>
      <point x="1074" y="1126"/>
      <point x="742" y="1126" type="curve" smooth="yes"/>
      <point x="452" y="1126"/>
      <point x="264" y="1004"/>
      <point x="202" y="714" type="curve" smooth="yes"/>
      <point x="140" y="420"/>
      <point x="344" y="150"/>
    </contour>
    <contour>
      <point x="304" y="-10" type="line"/>
      <point x="412" y="92"/>
      <point x="516" y="188"/>
      <point x="608" y="274" type="curve"/>
      <point x="340" y="558" type="line"/>
      <point x="250" y="474"/>
      <point x="146" y="378"/>
      <point x="36" y="276" type="curve"/>
    </contour>
    <contour>
      <point x="704" y="506" type="curve"/>
      <point x="616" y="506"/>
      <point x="564" y="578"/>
      <point x="582" y="662" type="curve" smooth="yes"/>
      <point x="596" y="726"/>
      <point x="638" y="776"/>
      <point x="722" y="776" type="curve"/>
      <point x="810" y="776"/>
      <point x="858" y="696"/>
      <point x="844" y="622" type="curve" smooth="yes"/>
      <point x="830" y="544"/>
      <point x="782" y="506"/>
    </contour>
    <contour>
      <point x="380" y="720" type="curve"/>
      <point x="658" y="978" type="line"/>
      <point x="572" y="1070"/>
      <point x="476" y="1172"/>
      <point x="374" y="1282" type="curve"/>
      <point x="98" y="1024" type="line"/>
      <point x="200" y="914"/>
      <point x="296" y="810"/>
    </contour>
    <contour>
      <point x="1054" y="-2" type="curve"/>
      <point x="1330" y="256" type="line"/>
      <point x="1228" y="366"/>
      <point x="1132" y="470"/>
      <point x="1048" y="560" type="curve"/>
      <point x="770" y="302" type="line"/>
      <point x="856" y="210"/>
      <point x="952" y="108"/>
    </contour>
    <contour>
      <point x="1088" y="722" type="line"/>
      <point x="1178" y="806"/>
      <point x="1282" y="902"/>
      <point x="1392" y="1004" type="curve"/>
      <point x="1124" y="1290" type="line"/>
      <point x="1016" y="1188"/>
      <point x="912" y="1092"/>
      <point x="820" y="1006" type="curve"/>
    </contour>
  </outline>
</glyph>
<glyph name="paragraph" format="2">
  <advance width="1228"/>
  <unicode hex="00B6"/>
  <outline>
    <contour>
      <point x="512" y="528" type="curve" smooth="yes"/>
      <point x="554" y="528" type="line"/>
      <point x="664" y="1426" type="line"/>
      <point x="618" y="1426" type="line" smooth="yes"/>
      <point x="352" y="1426"/>
      <point x="190" y="1276"/>
      <point x="138" y="1024" type="curve" smooth="yes"/>
      <point x="86" y="770"/>
      <point x="224" y="528"/>
    </contour>
    <contour>
      <point x="260" y="-354" type="curve"/>
      <point x="520" y="-354" type="line"/>
      <point x="570" y="-118"/>
      <point x="614" y="88"/>
      <point x="660" y="306" type="curve"/>
      <point x="758" y="766" type="line"/>
      <point x="804" y="984"/>
      <point x="848" y="1190"/>
      <point x="898" y="1426" type="curve"/>
      <point x="638" y="1426" type="line"/>
      <point x="588" y="1190"/>
      <point x="544" y="984"/>
      <point x="498" y="766" type="curve"/>
      <point x="400" y="306" type="line"/>
      <point x="354" y="88"/>
      <point x="310" y="-118"/>
    </contour>
    <contour>
      <point x="640" y="-354" type="curve"/>
      <point x="900" y="-354" type="line"/>
      <point x="950" y="-118"/>
      <point x="994" y="88"/>
      <point x="1040" y="306" type="curve"/>
      <point x="1138" y="766" type="line"/>
      <point x="1184" y="984"/>
      <point x="1228" y="1190"/>
      <point x="1278" y="1426" type="curve"/>
      <point x="1018" y="1426" type="line"/>
      <point x="968" y="1190"/>
      <point x="924" y="984"/>
      <point x="878" y="766" type="curve"/>
      <point x="780" y="306" type="line"/>
      <point x="734" y="88"/>
      <point x="690" y="-118"/>
    </contour>
    <contour>
      <point x="730" y="1186" type="line"/>
      <point x="918" y="1186" type="line"/>
      <point x="1042" y="1186"/>
      <point x="1184" y="1186"/>
      <point x="1334" y="1186" type="curve"/>
      <point x="1384" y="1426" type="line"/>
      <point x="1234" y="1426"/>
      <point x="1092" y="1426"/>
      <point x="968" y="1426" type="curve"/>
      <point x="780" y="1426" type="line"/>
    </contour>
  </outline>
</glyph>
<glyph name="multiply" format="2">
  <advance width="1196"/>
  <unicode hex="00D7"/>
  <outline>
    <contour>
      <point x="816" y="88" type="curve"/>
      <point x="1104" y="340" type="line"/>
      <point x="1014" y="448"/>
      <point x="930" y="550"/>
      <point x="858" y="636" type="curve"/>
      <point x="676" y="854" type="line"/>
      <point x="602" y="944"/>
      <point x="518" y="1044"/>
      <point x="430" y="1150" type="curve"/>
      <point x="142" y="896" type="line"/>
      <point x="232" y="788"/>
      <point x="314" y="690"/>
      <point x="386" y="604" type="curve"/>
      <point x="570" y="382" type="line"/>
      <point x="644" y="294"/>
      <point x="726" y="196"/>
    </contour>
    <contour>
      <point x="242" y="76" type="line"/>
      <point x="372" y="180"/>
      <point x="496" y="278"/>
      <point x="604" y="364" type="curve"/>
      <point x="872" y="576" type="line"/>
      <point x="978" y="660"/>
      <point x="1106" y="762"/>
      <point x="1234" y="864" type="curve"/>
      <point x="1004" y="1160" type="line"/>
      <point x="876" y="1058"/>
      <point x="750" y="958"/>
      <point x="642" y="872" type="curve"/>
      <point x="374" y="660" type="line"/>
      <point x="268" y="574"/>
      <point x="142" y="476"/>
      <point x="12" y="372" type="curve"/>
    </contour>
  </outline>
</glyph>
<glyph name="germandbls" format="2">
  <advance width="1240"/>
  <unicode hex="00DF"/>
  <outline>
    <contour>
      <point x="686" y="-12" type="curve" smooth="yes"/>
      <point x="950" y="-12"/>
      <point x="1122" y="128"/>
      <point x="1174" y="382" type="curve" smooth="yes"/>
      <point x="1212" y="566"/>
      <point x="1158" y="712"/>
      <point x="1038" y="780" type="curve"/>
      <point x="1046" y="810" type="line"/>
      <point x="1152" y="856"/>
      <point x="1228" y="940"/>
      <point x="1258" y="1082" type="curve" smooth="yes"/>
      <point x="1308" y="1320"/>
      <point x="1132" y="1498"/>
      <point x="822" y="1498" type="curve" smooth="yes"/>
      <point x="484" y="1498"/>
      <point x="302" y="1350"/>
      <point x="238" y="1046" type="curve" smooth="yes"/>
      <point x="202" y="872"/>
      <point x="166" y="700"/>
      <point x="130" y="526" type="curve"/>
      <point x="108" y="426" type="line"/>
      <point x="72" y="258"/>
      <point x="48" y="138"/>
      <point x="18" y="0" type="curve"/>
      <point x="462" y="0" type="line"/>
      <point x="492" y="138"/>
      <point x="516" y="258"/>
      <point x="552" y="426" type="curve"/>
      <point x="684" y="1056" type="line" smooth="yes"/>
      <point x="698" y="1118"/>
      <point x="732" y="1140"/>
      <point x="768" y="1140" type="curve"/>
      <point x="830" y="1140"/>
      <point x="852" y="1072"/>
      <point x="836" y="1002" type="curve" smooth="yes"/>
      <point x="822" y="938"/>
      <point x="778" y="878"/>
      <point x="724" y="878" type="curve"/>
      <point x="656" y="560" type="line"/>
      <point x="718" y="560"/>
      <point x="746" y="488"/>
      <point x="728" y="414" type="curve" smooth="yes"/>
      <point x="716" y="364"/>
      <point x="688" y="302"/>
      <point x="612" y="302" type="curve"/>
      <point x="608" y="302"/>
      <point x="606" y="302"/>
      <point x="602" y="302" type="curve"/>
      <point x="538" y="0" type="line"/>
      <point x="574" y="-8"/>
      <point x="646" y="-12"/>
    </contour>
    <contour>
      <point x="60" y="678" type="line"/>
      <point x="286" y="678" type="line"/>
      <point x="356" y="1004" type="line"/>
      <point x="130" y="1004" type="line"/>
    </contour>
  </outline>
</glyph>
<glyph name="ae" format="2">
  <advance width="1594"/>
  <unicode hex="00E6"/>
  <anchor x="694" y="0" name="bottom"/>
  <anchor x="906" y="1004" name="top"/>
  <outline>
    <contour>
      <point x="1116" y="-32" type="curve" smooth="yes"/>
      <point x="1270" y="-32"/>
      <point x="1386" y="-2"/>
      <point x="1442" y="30" type="curve"/>
      <point x="1500" y="392" type="line"/>
      <point x="1414" y="346"/>
      <point x="1292" y="326"/>
      <point x="1220" y="326" type="curve" smooth="yes"/>
      <point x="1068" y="326"/>
      <point x="968" y="362"/>
      <point x="994" y="504" type="curve"/>
      <point x="1010" y="580" type="line"/>
      <point x="1040" y="714"/>
      <point x="1094" y="754"/>
      <point x="1146" y="754" type="curve"/>
      <point x="1200" y="754"/>
      <point x="1216" y="676"/>
      <point x="1194" y="598" type="curve" smooth="yes"/>
      <point x="1190" y="584"/>
      <point x="1184" y="564"/>
      <point x="1178" y="546" type="curve"/>
      <point x="1530" y="436" type="line"/>
      <point x="1544" y="474"/>
      <point x="1554" y="510"/>
      <point x="1566" y="562" type="curve" smooth="yes"/>
      <point x="1636" y="868"/>
      <point x="1480" y="1036"/>
      <point x="1136" y="1036" type="curve" smooth="yes"/>
      <point x="876" y="1036"/>
      <point x="688" y="840"/>
      <point x="630" y="548" type="curve" smooth="yes"/>
      <point x="558" y="184"/>
      <point x="772" y="-32"/>
    </contour>
    <contour>
      <point x="474" y="306" type="curve" smooth="yes"/>
      <point x="442" y="306"/>
      <point x="408" y="330"/>
      <point x="416" y="376" type="curve" smooth="yes"/>
      <point x="424" y="422"/>
      <point x="466" y="436"/>
      <point x="498" y="446" type="curve" smooth="yes"/>
      <point x="546" y="460"/>
      <point x="564" y="468"/>
      <point x="586" y="492" type="curve"/>
      <point x="556" y="358" type="line"/>
      <point x="534" y="324"/>
      <point x="512" y="306"/>
    </contour>
    <contour>
      <point x="294" y="-28" type="curve" smooth="yes"/>
      <point x="506" y="-28"/>
      <point x="646" y="54"/>
      <point x="788" y="238" type="curve"/>
      <point x="862" y="512" type="line"/>
      <point x="970" y="626" type="line"/>
      <point x="1026" y="884"/>
      <point x="864" y="1036"/>
      <point x="578" y="1036" type="curve" smooth="yes"/>
      <point x="440" y="1036"/>
      <point x="284" y="1002"/>
      <point x="184" y="972" type="curve"/>
      <point x="116" y="600" type="line"/>
      <point x="240" y="648"/>
      <point x="360" y="678"/>
      <point x="466" y="678" type="curve" smooth="yes"/>
      <point x="584" y="678"/>
      <point x="624" y="636"/>
      <point x="616" y="606" type="curve"/>
      <point x="342" y="568" type="line" smooth="yes"/>
      <point x="180" y="546"/>
      <point x="36" y="486"/>
      <point x="-4" y="300" type="curve" smooth="yes"/>
      <point x="-42" y="120"/>
      <point x="48" y="-28"/>
    </contour>
    <contour>
      <point x="750" y="436" type="line"/>
      <point x="1530" y="436" type="line"/>
      <point x="1564" y="596" type="line"/>
      <point x="1314" y="620" type="line"/>
      <point x="784" y="600" type="line"/>
    </contour>
  </outline>
</glyph>
<glyph name="eth" format="2">
  <advance width="1196"/>
  <unicode hex="00F0"/>
  <outline>
    <contour>
      <point x="554" y="-32" type="curve" smooth="yes"/>
      <point x="924" y="-32"/>
      <point x="1096" y="190"/>
      <point x="1164" y="520" type="curve" smooth="yes"/>
      <point x="1226" y="826"/>
      <point x="1162" y="1094"/>
      <point x="1010" y="1294" type="curve"/>
      <point x="944" y="1382"/>
      <point x="864" y="1460"/>
      <point x="768" y="1530" type="curve"/>
      <point x="384" y="1440" type="line"/>
      <point x="492" y="1350"/>
      <point x="576" y="1250"/>
      <point x="638" y="1152" type="curve"/>
      <point x="736" y="992"/>
      <point x="772" y="814"/>
      <point x="738" y="638" type="curve" smooth="yes"/>
      <point x="694" y="398"/>
      <point x="636" y="322"/>
      <point x="566" y="322" type="curve"/>
      <point x="492" y="322"/>
      <point x="466" y="404"/>
      <point x="480" y="468" type="curve" smooth="yes"/>
      <point x="494" y="532"/>
      <point x="546" y="588"/>
      <point x="620" y="588" type="curve"/>
      <point x="646" y="588"/>
      <point x="708" y="572"/>
      <point x="740" y="506" type="curve"/>
      <point x="854" y="612"/>
      <point x="850" y="742"/>
      <point x="766" y="866" type="curve"/>
      <point x="718" y="832" type="line"/>
      <point x="666" y="868"/>
      <point x="574" y="894"/>
      <point x="472" y="894" type="curve" smooth="yes"/>
      <point x="280" y="894"/>
      <point x="98" y="800"/>
      <point x="40" y="528" type="curve" smooth="yes"/>
      <point x="-34" y="178"/>
      <point x="208" y="-32"/>
    </contour>
    <contour>
      <point x="402" y="944" type="line"/>
      <point x="534" y="990"/>
      <point x="664" y="1036"/>
      <point x="778" y="1076" type="curve"/>
      <point x="880" y="1112" type="line"/>
      <point x="992" y="1152"/>
      <point x="1124" y="1198"/>
      <point x="1260" y="1246" type="curve"/>
      <point x="1198" y="1492" type="line"/>
      <point x="1060" y="1444"/>
      <point x="938" y="1400"/>
      <point x="824" y="1360" type="curve"/>
      <point x="716" y="1322" type="line"/>
      <point x="602" y="1282"/>
      <point x="478" y="1238"/>
      <point x="340" y="1190" type="curve"/>
    </contour>
  </outline>
</glyph>
<glyph name="divide" format="2">
  <advance width="1180"/>
  <unicode hex="00F7"/>
  <outline>
    <contour>
      <point x="64" y="428" type="line"/>
      <point x="214" y="428"/>
      <point x="356" y="428"/>
      <point x="480" y="428" type="curve"/>
      <point x="668" y="428" type="line"/>
      <point x="792" y="428"/>
      <point x="934" y="428"/>
      <point x="1084" y="428" type="curve"/>
      <point x="1166" y="808" type="line"/>
      <point x="1016" y="808"/>
      <point x="874" y="808"/>
      <point x="750" y="808" type="curve"/>
      <point x="562" y="808" type="line"/>
      <point x="438" y="808"/>
      <point x="296" y="808"/>
      <point x="146" y="808" type="curve"/>
    </contour>
    <contour>
      <point x="500" y="-12" type="curve" smooth="yes"/>
      <point x="630" y="-12"/>
      <point x="694" y="52"/>
      <point x="716" y="158" type="curve" smooth="yes"/>
      <point x="740" y="274"/>
      <point x="670" y="382"/>
      <point x="532" y="382" type="curve" smooth="yes"/>
      <point x="400" y="382"/>
      <point x="336" y="318"/>
      <point x="314" y="212" type="curve" smooth="yes"/>
      <point x="290" y="98"/>
      <point x="356" y="-12"/>
    </contour>
    <contour>
      <point x="684" y="854" type="curve" smooth="yes"/>
      <point x="814" y="854"/>
      <point x="878" y="918"/>
      <point x="900" y="1024" type="curve" smooth="yes"/>
      <point x="924" y="1140"/>
      <point x="854" y="1248"/>
      <point x="716" y="1248" type="curve" smooth="yes"/>
      <point x="584" y="1248"/>
      <point x="520" y="1184"/>
      <point x="498" y="1078" type="curve" smooth="yes"/>
      <point x="474" y="964"/>
      <point x="540" y="854"/>
    </contour>
  </outline>
</glyph>
<glyph name="Eng" format="2">
  <advance width="1492"/>
  <unicode hex="014A"/>
  <outline>
    <contour>
      <point x="582" y="-384" type="curve"/>
      <point x="1036" y="-384" type="line"/>
      <point x="1162" y="-290"/>
      <point x="1262" y="-150"/>
      <point x="1310" y="78" type="curve" smooth="yes"/>
      <point x="1348" y="258"/>
      <point x="1390" y="454"/>
      <point x="1432" y="654" type="curve"/>
      <point x="1494" y="948" type="line"/>
      <point x="1534" y="1138"/>
      <point x="1562" y="1270"/>
      <point x="1596" y="1426" type="curve"/>
      <point x="1138" y="1426" type="line"/>
      <point x="1104" y="1270"/>
      <point x="1076" y="1138"/>
      <point x="1036" y="948" type="curve"/>
      <point x="1000" y="778" type="line"/>
      <point x="966" y="778" type="line"/>
      <point x="870" y="1024" type="line"/>
      <point x="820" y="1148"/>
      <point x="770" y="1276"/>
      <point x="714" y="1426" type="curve"/>
      <point x="288" y="1426" type="line"/>
      <point x="254" y="1270"/>
      <point x="226" y="1138"/>
      <point x="186" y="948" type="curve"/>
      <point x="82" y="458" type="line"/>
      <point x="42" y="272"/>
      <point x="16" y="148"/>
      <point x="-16" y="0" type="curve"/>
      <point x="442" y="0" type="line"/>
      <point x="474" y="148"/>
      <point x="500" y="272"/>
      <point x="540" y="458" type="curve"/>
      <point x="580" y="648" type="line"/>
      <point x="612" y="648" type="line"/>
      <point x="714" y="400" type="line"/>
      <point x="774" y="252"/>
      <point x="824" y="130"/>
      <point x="878" y="0" type="curve"/>
      <point x="956" y="0" type="line"/>
      <point x="848" y="216" type="line"/>
      <point x="822" y="102" type="line"/>
      <point x="786" y="-64"/>
      <point x="708" y="-234"/>
    </contour>
  </outline>
</glyph>
<glyph name="florin" format="2">
  <advance width="1120"/>
  <unicode hex="0192"/>
  <outline>
    <contour>
      <point x="140" y="-290" type="curve" smooth="yes"/>
      <point x="358" y="-290"/>
      <point x="584" y="-218"/>
      <point x="662" y="120" type="curve" smooth="yes"/>
      <point x="720" y="378"/>
      <point x="768" y="590"/>
      <point x="822" y="828" type="curve"/>
      <point x="820" y="866" type="line"/>
      <point x="824" y="888"/>
      <point x="834" y="926"/>
      <point x="838" y="940" type="curve" smooth="yes"/>
      <point x="860" y="1026"/>
      <point x="896" y="1054"/>
      <point x="952" y="1054" type="curve" smooth="yes"/>
      <point x="996" y="1054"/>
      <point x="1048" y="1040"/>
      <point x="1094" y="1020" type="curve"/>
      <point x="1198" y="1368" type="line"/>
      <point x="1136" y="1396"/>
      <point x="1036" y="1412"/>
      <point x="948" y="1412" type="curve" smooth="yes"/>
      <point x="722" y="1412"/>
      <point x="492" y="1338"/>
      <point x="418" y="1008" type="curve" smooth="yes"/>
      <point x="350" y="702"/>
      <point x="284" y="420"/>
      <point x="222" y="140" type="curve" smooth="yes"/>
      <point x="206" y="78"/>
      <point x="176" y="68"/>
      <point x="138" y="68" type="curve" smooth="yes"/>
      <point x="94" y="68"/>
      <point x="40" y="82"/>
      <point x="-6" y="102" type="curve"/>
      <point x="-110" y="-246" type="line"/>
      <point x="-48" y="-274"/>
      <point x="52" y="-290"/>
    </contour>
    <contour>
      <point x="128" y="566" type="line"/>
      <point x="278" y="566"/>
      <point x="420" y="566"/>
      <point x="544" y="566" type="curve"/>
      <point x="632" y="566" type="line"/>
      <point x="756" y="566"/>
      <point x="898" y="566"/>
      <point x="1048" y="566" type="curve"/>
      <point x="1112" y="866" type="line"/>
      <point x="962" y="866"/>
      <point x="820" y="866"/>
      <point x="696" y="866" type="curve"/>
      <point x="608" y="866" type="line"/>
      <point x="484" y="866"/>
      <point x="342" y="866"/>
      <point x="192" y="866" type="curve"/>
    </contour>
  </outline>
</glyph>
<glyph name="ringhalfright" format="2">
  <advance width="402"/>
  <unicode hex="02BE"/>
  <outline>
    <contour>
      <point x="230" y="1076" type="line"/>
      <point x="378" y="1076"/>
      <point x="522" y="1124"/>
      <point x="558" y="1302" type="curve" smooth="yes"/>
      <point x="590" y="1464"/>
      <point x="474" y="1612"/>
      <point x="276" y="1612" type="curve"/>
      <point x="264" y="1444" type="line"/>
      <point x="326" y="1444"/>
      <point x="366" y="1386"/>
      <point x="356" y="1334" type="curve" smooth="yes"/>
      <point x="344" y="1276"/>
      <point x="310" y="1246"/>
      <point x="244" y="1246" type="curve"/>
    </contour>
  </outline>
</glyph>
<glyph name="ringhalfleft" format="2">
  <advance width="402"/>
  <unicode hex="02BF"/>
  <outline>
    <contour>
      <point x="510" y="1076" type="curve"/>
      <point x="524" y="1246" type="line"/>
      <point x="460" y="1246"/>
      <point x="420" y="1298"/>
      <point x="434" y="1360" type="curve" smooth="yes"/>
      <point x="444" y="1408"/>
      <point x="478" y="1444"/>
      <point x="544" y="1444" type="curve"/>
      <point x="556" y="1612" type="line"/>
      <point x="384" y="1612"/>
      <point x="266" y="1542"/>
      <point x="228" y="1382" type="curve" smooth="yes"/>
      <point x="188" y="1204"/>
      <point x="314" y="1076"/>
    </contour>
  </outline>
</glyph>
<glyph name="macroncomb" format="2">
  <unicode hex="0304"/>
  <anchor x="706" y="1004" name="_top"/>
  <anchor x="796" y="1434" name="top"/>
  <outline>
    <contour>
      <point x="360" y="1126" type="line"/>
      <point x="472" y="1126"/>
      <point x="596" y="1126"/>
      <point x="732" y="1126" type="curve"/>
      <point x="868" y="1126"/>
      <point x="992" y="1126"/>
      <point x="1104" y="1126" type="curve"/>
      <point x="1170" y="1446" type="line"/>
      <point x="1058" y="1446"/>
      <point x="934" y="1446"/>
      <point x="798" y="1446" type="curve"/>
      <point x="662" y="1446"/>
      <point x="538" y="1446"/>
      <point x="426" y="1446" type="curve"/>
    </contour>
  </outline>
</glyph>
<glyph name="brevecomb" format="2">
  <unicode hex="0306"/>
  <anchor x="706" y="1004" name="_top"/>
  <anchor x="796" y="1438" name="top"/>
  <outline>
    <contour>
      <point x="764" y="1076" type="curve" smooth="yes"/>
      <point x="1052" y="1076"/>
      <point x="1170" y="1208"/>
      <point x="1234" y="1522" type="curve"/>
      <point x="940" y="1522" type="line"/>
      <point x="922" y="1432"/>
      <point x="880" y="1360"/>
      <point x="784" y="1360" type="curve"/>
      <point x="690" y="1360"/>
      <point x="662" y="1424"/>
      <point x="686" y="1536" type="curve"/>
      <point x="388" y="1522" type="line"/>
      <point x="326" y="1218"/>
      <point x="480" y="1076"/>
    </contour>
  </outline>
</glyph>
<glyph name="hungarumlautcomb" format="2">
  <unicode hex="030B"/>
  <anchor x="706" y="1004" name="_top"/>
  <anchor x="816" y="1534" name="top"/>
  <outline>
    <contour>
      <point x="766" y="1106" type="curve"/>
      <point x="1084" y="1110" type="line"/>
      <point x="1216" y="1250"/>
      <point x="1362" y="1398"/>
      <point x="1508" y="1552" type="curve"/>
      <point x="1062" y="1542" type="line"/>
      <point x="964" y="1396"/>
      <point x="866" y="1252"/>
    </contour>
    <contour>
      <point x="302" y="1106" type="curve"/>
      <point x="598" y="1110" type="line"/>
      <point x="716" y="1250"/>
      <point x="846" y="1398"/>
      <point x="976" y="1552" type="curve"/>
      <point x="552" y="1542" type="line"/>
      <point x="470" y="1396"/>
      <point x="388" y="1252"/>
    </contour>
  </outline>
</glyph>
<glyph name="strokelongcomb" format="2">
  <unicode hex="0336"/>
  <anchor x="654" y="714" name="_center"/>
  <outline>
    <contour>
      <point x="-88" y="986" type="line"/>
      <point x="64" y="986"/>
      <point x="208" y="986"/>
      <point x="334" y="986" type="curve"/>
      <point x="1090" y="986" type="line"/>
      <point x="1216" y="986"/>
      <point x="1360" y="986"/>
      <point x="1512" y="986" type="curve"/>
      <point x="1576" y="1288" type="line"/>
      <point x="1424" y="1288"/>
      <point x="1280" y="1288"/>
      <point x="1154" y="1288" type="curve"/>
      <point x="398" y="1288" type="line"/>
      <point x="272" y="1288"/>
      <point x="128" y="1288"/>
      <point x="-24" y="1288" type="curve"/>
    </contour>
  </outline>
</glyph>
<glyph name="emdash" format="2">
  <advance width="1620"/>
  <unicode hex="2014"/>
  <outline>
    <contour>
      <point x="62" y="418" type="line"/>
      <point x="258" y="418"/>
      <point x="442" y="418"/>
      <point x="604" y="418" type="curve"/>
      <point x="980" y="418" type="line"/>
      <point x="1142" y="418"/>
      <point x="1326" y="418"/>
      <point x="1522" y="418" type="curve"/>
      <point x="1602" y="798" type="line"/>
      <point x="1406" y="798"/>
      <point x="1222" y="798"/>
      <point x="1060" y="798" type="curve"/>
      <point x="684" y="798" type="line"/>
      <point x="522" y="798"/>
      <point x="338" y="798"/>
      <point x="142" y="798" type="curve"/>
    </contour>
  </outline>
</glyph>
<glyph name="dagger" format="2">
  <advance width="1220"/>
  <unicode hex="2020"/>
  <outline>
    <contour>
      <point x="294" y="0" type="curve"/>
      <point x="714" y="0" type="line"/>
      <point x="760" y="218"/>
      <point x="800" y="408"/>
      <point x="854" y="666" type="curve"/>
      <point x="904" y="898" type="line"/>
      <point x="938" y="1058"/>
      <point x="972" y="1220"/>
      <point x="1006" y="1380" type="curve"/>
      <point x="586" y="1380" type="line"/>
      <point x="552" y="1218"/>
      <point x="518" y="1060"/>
      <point x="484" y="898" type="curve"/>
      <point x="434" y="666" type="line"/>
      <point x="380" y="408"/>
      <point x="340" y="218"/>
    </contour>
    <contour>
      <point x="112" y="648" type="line"/>
      <point x="262" y="648"/>
      <point x="404" y="648"/>
      <point x="528" y="648" type="curve"/>
      <point x="756" y="648" type="line"/>
      <point x="880" y="648"/>
      <point x="1022" y="648"/>
      <point x="1172" y="648" type="curve"/>
      <point x="1248" y="1008" type="line"/>
      <point x="1098" y="1008"/>
      <point x="956" y="1008"/>
      <point x="832" y="1008" type="curve"/>
      <point x="604" y="1008" type="line"/>
      <point x="480" y="1008"/>
      <point x="338" y="1008"/>
      <point x="188" y="1008" type="curve"/>
    </contour>
  </outline>
</glyph>
<glyph name="minute" format="2">
  <advance width="580"/>
  <unicode hex="2032"/>
  <outline>
    <contour>
      <point x="104" y="618" type="curve"/>
      <point x="424" y="620" type="line"/>
      <point x="526" y="880"/>
      <point x="624" y="1132"/>
      <point x="726" y="1390" type="curve"/>
      <point x="304" y="1380" type="line"/>
      <point x="238" y="1130"/>
      <point x="172" y="874"/>
    </contour>
  </outline>
</glyph>
<glyph name="fraction" format="2">
  <advance width="664"/>
  <unicode hex="2044"/>
  <outline>
    <contour>
      <point x="-346" y="0" type="curve"/>
      <point x="98" y="0" type="line"/>
      <point x="202" y="146"/>
      <point x="292" y="278"/>
      <point x="422" y="460" type="curve"/>
      <point x="768" y="954" type="line"/>
      <point x="900" y="1140"/>
      <point x="994" y="1276"/>
      <point x="1100" y="1426" type="curve"/>
      <point x="656" y="1426" type="line"/>
      <point x="550" y="1276"/>
      <point x="456" y="1140"/>
      <point x="324" y="954" type="curve"/>
      <point x="-22" y="460" type="line"/>
      <point x="-152" y="278"/>
      <point x="-242" y="146"/>
    </contour>
  </outline>
</glyph>
<glyph name="colonsign" format="2">
  <advance width="1304"/>
  <unicode hex="20A1"/>
  <outline>
    <contour>
      <point x="732" y="-30" type="curve" smooth="yes"/>
      <point x="854" y="-30"/>
      <point x="1020" y="-10"/>
      <point x="1124" y="32" type="curve"/>
      <point x="1196" y="474" type="line"/>
      <point x="1058" y="390"/>
      <point x="926" y="348"/>
      <point x="828" y="348" type="curve"/>
      <point x="608" y="348"/>
      <point x="540" y="530"/>
      <point x="578" y="716" type="curve" smooth="yes"/>
      <point x="624" y="936"/>
      <point x="764" y="1020"/>
      <point x="906" y="1020" type="curve"/>
      <point x="1030" y="1020"/>
      <point x="1144" y="968"/>
      <point x="1272" y="884" type="curve"/>
      <point x="1396" y="1304" type="line"/>
      <point x="1270" y="1370"/>
      <point x="1072" y="1412"/>
      <point x="914" y="1412" type="curve" smooth="yes"/>
      <point x="444" y="1412"/>
      <point x="188" y="1182"/>
      <point x="104" y="774" type="curve" smooth="yes"/>
      <point x="12" y="334"/>
      <point x="240" y="-30"/>
    </contour>
    <contour>
      <point x="76" y="-274" type="curve"/>
      <point x="358" y="-274" type="line"/>
      <point x="456" y="-40"/>
      <point x="546" y="166"/>
      <point x="636" y="382" type="curve"/>
      <point x="876" y="948" type="line"/>
      <point x="968" y="1164"/>
      <point x="1056" y="1372"/>
      <point x="1156" y="1606" type="curve"/>
      <point x="874" y="1606" type="line"/>
      <point x="774" y="1372"/>
      <point x="686" y="1168"/>
      <point x="594" y="952" type="curve"/>
      <point x="354" y="384" type="line"/>
      <point x="264" y="170"/>
      <point x="174" y="-42"/>
    </contour>
    <contour>
      <point x="442" y="-274" type="curve"/>
      <point x="724" y="-274" type="line"/>
      <point x="822" y="-40"/>
      <point x="912" y="166"/>
      <point x="1002" y="382" type="curve"/>
      <point x="1242" y="948" type="line"/>
      <point x="1334" y="1164"/>
      <point x="1422" y="1372"/>
      <point x="1522" y="1606" type="curve"/>
      <point x="1240" y="1606" type="line"/>
      <point x="1140" y="1372"/>
      <point x="1052" y="1168"/>
      <point x="960" y="952" type="curve"/>
      <point x="720" y="384" type="line"/>
      <point x="630" y="170"/>
      <point x="540" y="-42"/>
    </contour>
  </outline>
</glyph>
<glyph name="franc" format="2">
  <advance width="1212"/>
  <unicode hex="20A3"/>
  <outline>
    <contour>
      <point x="86" y="0" type="curve"/>
      <point x="544" y="0" type="line"/>
      <point x="574" y="142"/>
      <point x="602" y="272"/>
      <point x="638" y="444" type="curve"/>
      <point x="724" y="850" type="line"/>
      <point x="762" y="1030"/>
      <point x="790" y="1162"/>
      <point x="820" y="1304" type="curve"/>
      <point x="836" y="1380" type="line"/>
      <point x="378" y="1380" type="line"/>
      <point x="348" y="1236"/>
      <point x="320" y="1106"/>
      <point x="282" y="924" type="curve"/>
      <point x="180" y="444" type="line"/>
      <point x="144" y="272"/>
      <point x="116" y="142"/>
    </contour>
    <contour>
      <point x="666" y="996" type="line"/>
      <point x="870" y="996" type="line"/>
      <point x="1032" y="996"/>
      <point x="1146" y="996"/>
      <point x="1252" y="996" type="curve"/>
      <point x="1332" y="1380" type="line"/>
      <point x="746" y="1380" type="line"/>
    </contour>
    <contour>
      <point x="538" y="544" type="line"/>
      <point x="770" y="544" type="line"/>
      <point x="920" y="544"/>
      <point x="1022" y="544"/>
      <point x="1132" y="544" type="curve"/>
      <point x="1198" y="852" type="line"/>
      <point x="1094" y="852"/>
      <point x="992" y="852"/>
      <point x="836" y="852" type="curve"/>
      <point x="604" y="852" type="line"/>
    </contour>
    <contour>
      <point x="-20" y="170" type="line"/>
      <point x="130" y="170"/>
      <point x="272" y="170"/>
      <point x="396" y="170" type="curve"/>
      <point x="484" y="170" type="line"/>
      <point x="608" y="170"/>
      <point x="750" y="170"/>
      <point x="900" y="170" type="curve"/>
      <point x="954" y="430" type="line"/>
      <point x="804" y="430"/>
      <point x="662" y="430"/>
      <point x="538" y="430" type="curve"/>
      <point x="450" y="430" type="line"/>
      <point x="326" y="430"/>
      <point x="184" y="430"/>
      <point x="34" y="430" type="curve"/>
    </contour>
  </outline>
</glyph>
<glyph name="lira" format="2">
  <advance width="1246"/>
  <unicode hex="20A4"/>
  <outline>
    <contour>
      <point x="-36" y="0" type="line"/>
      <point x="1080" y="0" type="line"/>
      <point x="1164" y="400" type="line"/>
      <point x="1010" y="400"/>
      <point x="876" y="400"/>
      <point x="644" y="400" type="curve"/>
      <point x="390" y="400" type="line"/>
      <point x="454" y="340" type="line"/>
      <point x="636" y="434"/>
      <point x="686" y="526"/>
      <point x="708" y="638" type="curve" smooth="yes"/>
      <point x="750" y="848" type="line" smooth="yes"/>
      <point x="774" y="964"/>
      <point x="846" y="1026"/>
      <point x="944" y="1026" type="curve"/>
      <point x="996" y="1026"/>
      <point x="1088" y="1012"/>
      <point x="1200" y="952" type="curve"/>
      <point x="1322" y="1346" type="line"/>
      <point x="1188" y="1392"/>
      <point x="1042" y="1412"/>
      <point x="890" y="1412" type="curve" smooth="yes"/>
      <point x="544" y="1412"/>
      <point x="360" y="1228"/>
      <point x="294" y="906" type="curve" smooth="yes"/>
      <point x="270" y="790"/>
      <point x="234" y="622"/>
      <point x="204" y="478" type="curve"/>
      <point x="186" y="392"/>
      <point x="140" y="304"/>
      <point x="12" y="228" type="curve"/>
    </contour>
    <contour>
      <point x="136" y="740" type="line"/>
      <point x="286" y="740"/>
      <point x="428" y="740"/>
      <point x="552" y="740" type="curve"/>
      <point x="640" y="740" type="line"/>
      <point x="764" y="740"/>
      <point x="906" y="740"/>
      <point x="1056" y="740" type="curve"/>
      <point x="1094" y="920" type="line"/>
      <point x="944" y="920"/>
      <point x="802" y="920"/>
      <point x="678" y="920" type="curve"/>
      <point x="590" y="920" type="line"/>
      <point x="466" y="920"/>
      <point x="324" y="920"/>
      <point x="174" y="920" type="curve"/>
    </contour>
    <contour>
      <point x="82" y="482" type="line"/>
      <point x="232" y="482"/>
      <point x="374" y="482"/>
      <point x="498" y="482" type="curve"/>
      <point x="586" y="482" type="line"/>
      <point x="710" y="482"/>
      <point x="852" y="482"/>
      <point x="1002" y="482" type="curve"/>
      <point x="1040" y="662" type="line"/>
      <point x="890" y="662"/>
      <point x="748" y="662"/>
      <point x="624" y="662" type="curve"/>
      <point x="536" y="662" type="line"/>
      <point x="412" y="662"/>
      <point x="270" y="662"/>
      <point x="120" y="662" type="curve"/>
    </contour>
  </outline>
</glyph>
<glyph name="naira" format="2">
  <advance width="1708"/>
  <unicode hex="20A6"/>
  <outline>
    <contour>
      <point x="126" y="0" type="curve"/>
      <point x="564" y="0" type="line"/>
      <point x="594" y="146"/>
      <point x="624" y="288"/>
      <point x="660" y="462" type="curve"/>
      <point x="694" y="626" type="line"/>
      <point x="724" y="626" type="line"/>
      <point x="820" y="382" type="line"/>
      <point x="878" y="236"/>
      <point x="926" y="112"/>
      <point x="970" y="0" type="curve"/>
      <point x="1370" y="0" type="line"/>
      <point x="1400" y="142"/>
      <point x="1426" y="266"/>
      <point x="1462" y="436" type="curve"/>
      <point x="1566" y="926" type="line"/>
      <point x="1604" y="1106"/>
      <point x="1632" y="1238"/>
      <point x="1662" y="1380" type="curve"/>
      <point x="1224" y="1380" type="line"/>
      <point x="1192" y="1228"/>
      <point x="1162" y="1084"/>
      <point x="1120" y="884" type="curve"/>
      <point x="1090" y="742" type="line"/>
      <point x="1058" y="742" type="line"/>
      <point x="964" y="994" type="line"/>
      <point x="918" y="1116"/>
      <point x="870" y="1246"/>
      <point x="820" y="1380" type="curve"/>
      <point x="418" y="1380" type="line"/>
      <point x="388" y="1234"/>
      <point x="360" y="1104"/>
      <point x="322" y="922" type="curve"/>
      <point x="218" y="436" type="line"/>
      <point x="182" y="266"/>
      <point x="156" y="142"/>
    </contour>
    <contour>
      <point x="64" y="566" type="line"/>
      <point x="214" y="566"/>
      <point x="356" y="566"/>
      <point x="480" y="566" type="curve"/>
      <point x="1256" y="566" type="line"/>
      <point x="1380" y="566"/>
      <point x="1522" y="566"/>
      <point x="1672" y="566" type="curve"/>
      <point x="1736" y="866" type="line"/>
      <point x="1586" y="866"/>
      <point x="1444" y="866"/>
      <point x="1320" y="866" type="curve"/>
      <point x="544" y="866" type="line"/>
      <point x="420" y="866"/>
      <point x="278" y="866"/>
      <point x="128" y="866" type="curve"/>
    </contour>
  </outline>
</glyph>
<glyph name="guarani" format="2">
  <advance width="1386"/>
  <unicode hex="20B2"/>
  <outline>
    <contour>
      <point x="762" y="-28" type="curve" smooth="yes"/>
      <point x="918" y="-28"/>
      <point x="1100" y="0"/>
      <point x="1192" y="34" type="curve"/>
      <point x="1220" y="442" type="line"/>
      <point x="1072" y="368"/>
      <point x="962" y="338"/>
      <point x="800" y="338" type="curve"/>
      <point x="604" y="338"/>
      <point x="538" y="532"/>
      <point x="578" y="724" type="curve" smooth="yes"/>
      <point x="628" y="958"/>
      <point x="778" y="1020"/>
      <point x="904" y="1020" type="curve"/>
      <point x="996" y="1020"/>
      <point x="1144" y="992"/>
      <point x="1316" y="884" type="curve"/>
      <point x="1442" y="1306" type="line"/>
      <point x="1308" y="1364"/>
      <point x="1108" y="1412"/>
      <point x="894" y="1412" type="curve" smooth="yes"/>
      <point x="464" y="1412"/>
      <point x="198" y="1210"/>
      <point x="106" y="780" type="curve" smooth="yes"/>
      <point x="14" y="352"/>
      <point x="214" y="-28"/>
    </contour>
    <contour>
      <point x="448" y="-274" type="curve"/>
      <point x="768" y="-274" type="line"/>
      <point x="818" y="-40"/>
      <point x="862" y="168"/>
      <point x="908" y="384" type="curve"/>
      <point x="1028" y="948" type="line"/>
      <point x="1074" y="1164"/>
      <point x="1118" y="1372"/>
      <point x="1168" y="1606" type="curve"/>
      <point x="848" y="1606" type="line"/>
      <point x="798" y="1372"/>
      <point x="754" y="1164"/>
      <point x="708" y="948" type="curve"/>
      <point x="588" y="384" type="line"/>
      <point x="542" y="168"/>
      <point x="498" y="-40"/>
    </contour>
    <contour>
      <point x="752" y="24" type="curve"/>
      <point x="1192" y="34" type="line"/>
      <point x="1220" y="170"/>
      <point x="1244" y="284"/>
      <point x="1268" y="398" type="curve"/>
      <point x="1296" y="530"/>
      <point x="1316" y="626"/>
      <point x="1338" y="732" type="curve"/>
      <point x="900" y="732" type="line"/>
      <point x="878" y="626"/>
      <point x="858" y="530"/>
      <point x="830" y="398" type="curve"/>
      <point x="806" y="282"/>
      <point x="782" y="168"/>
    </contour>
  </outline>
</glyph>
<glyph name="cedi" format="2">
  <advance width="1304"/>
  <unicode hex="20B5"/>
  <outline>
    <contour>
      <point x="448" y="-274" type="curve"/>
      <point x="768" y="-274" type="line"/>
      <point x="818" y="-40"/>
      <point x="862" y="168"/>
      <point x="908" y="384" type="curve"/>
      <point x="1028" y="948" type="line"/>
      <point x="1074" y="1164"/>
      <point x="1118" y="1372"/>
      <point x="1168" y="1606" type="curve"/>
      <point x="848" y="1606" type="line"/>
      <point x="798" y="1372"/>
      <point x="754" y="1164"/>
      <point x="708" y="948" type="curve"/>
      <point x="588" y="384" type="line"/>
      <point x="542" y="168"/>
      <point x="498" y="-40"/>
    </contour>
    <contour>
      <point x="732" y="-30" type="curve" smooth="yes"/>
      <point x="854" y="-30"/>
      <point x="1020" y="-10"/>
      <point x="1124" y="32" type="curve"/>
      <point x="1196" y="474" type="line"/>
      <point x="1058" y="390"/>
      <point x="926" y="348"/>
      <point x="828" y="348" type="curve"/>
      <point x="608" y="348"/>
      <point x="540" y="530"/>
      <point x="578" y="716" type="curve" smooth="yes"/>
      <point x="624" y="936"/>
      <point x="764" y="1020"/>
      <point x="906" y="1020" type="curve"/>
      <point x="1030" y="1020"/>
      <point x="1144" y="968"/>
      <point x="1272" y="884" type="curve"/>
      <point x="1396" y="1304" type="line"/>
      <point x="1270" y="1370"/>
      <point x="1072" y="1412"/>
      <point x="914" y="1412" type="curve" smooth="yes"/>
      <point x="444" y="1412"/>
      <point x="188" y="1182"/>
      <point x="104" y="774" type="curve" smooth="yes"/>
      <point x="12" y="334"/>
      <point x="240" y="-30"/>
    </contour>
  </outline>
</glyph>
<glyph name="liraTurkish" format="2">
  <advance width="1512"/>
  <unicode hex="20BA"/>
  <outline>
    <contour>
      <point x="146" y="0" type="curve"/>
      <point x="534" y="0" type="line"/>
      <point x="632" y="76" type="line"/>
      <point x="662" y="218"/>
      <point x="688" y="342"/>
      <point x="724" y="516" type="curve"/>
      <point x="810" y="926" type="line"/>
      <point x="848" y="1106"/>
      <point x="876" y="1238"/>
      <point x="906" y="1380" type="curve"/>
      <point x="438" y="1380" type="line"/>
      <point x="408" y="1238"/>
      <point x="380" y="1106"/>
      <point x="342" y="926" type="curve"/>
      <point x="238" y="436" type="line"/>
      <point x="202" y="266"/>
      <point x="176" y="142"/>
    </contour>
    <contour>
      <point x="534" y="0" type="line"/>
      <point x="670" y="0" type="line" smooth="yes"/>
      <point x="1036" y="0"/>
      <point x="1268" y="142"/>
      <point x="1406" y="446" type="curve"/>
      <point x="1450" y="544"/>
      <point x="1486" y="656"/>
      <point x="1512" y="786" type="curve"/>
      <point x="1042" y="786" type="line"/>
      <point x="1030" y="722"/>
      <point x="1014" y="664"/>
      <point x="994" y="612" type="curve"/>
      <point x="940" y="464"/>
      <point x="852" y="374"/>
      <point x="708" y="374" type="curve" smooth="yes"/>
      <point x="612" y="374" type="line"/>
    </contour>
    <contour>
      <point x="128" y="470" type="line"/>
      <point x="276" y="530"/>
      <point x="418" y="588"/>
      <point x="542" y="638" type="curve"/>
      <point x="734" y="716" type="line"/>
      <point x="862" y="768"/>
      <point x="1000" y="824"/>
      <point x="1148" y="884" type="curve"/>
      <point x="1106" y="1054" type="line"/>
      <point x="958" y="994"/>
      <point x="816" y="936"/>
      <point x="692" y="886" type="curve"/>
      <point x="502" y="808" type="line"/>
      <point x="378" y="758"/>
      <point x="236" y="700"/>
      <point x="88" y="640" type="curve"/>
    </contour>
    <contour>
      <point x="186" y="756" type="line"/>
      <point x="334" y="816"/>
      <point x="476" y="874"/>
      <point x="600" y="924" type="curve"/>
      <point x="792" y="1002" type="line"/>
      <point x="920" y="1054"/>
      <point x="1058" y="1110"/>
      <point x="1206" y="1170" type="curve"/>
      <point x="1164" y="1340" type="line"/>
      <point x="1016" y="1280"/>
      <point x="874" y="1222"/>
      <point x="750" y="1172" type="curve"/>
      <point x="560" y="1094" type="line"/>
      <point x="436" y="1044"/>
      <point x="294" y="986"/>
      <point x="146" y="926" type="curve"/>
    </contour>
  </outline>
</glyph>
<glyph name="ruble" format="2">
  <advance width="1386"/>
  <unicode hex="20BD"/>
  <outline>
    <contour>
      <point x="604" y="544" type="line"/>
      <point x="678" y="544"/>
      <point x="802" y="544"/>
      <point x="896" y="544" type="curve"/>
      <point x="1222" y="544"/>
      <point x="1380" y="658"/>
      <point x="1438" y="928" type="curve" smooth="yes"/>
      <point x="1506" y="1242"/>
      <point x="1332" y="1380"/>
      <point x="982" y="1380" type="curve"/>
      <point x="712" y="1380"/>
      <point x="490" y="1380"/>
      <point x="380" y="1380" type="curve"/>
      <point x="742" y="1062" type="line"/>
      <point x="886" y="1062" type="line" smooth="yes"/>
      <point x="948" y="1062"/>
      <point x="974" y="1012"/>
      <point x="960" y="944" type="curve" smooth="yes"/>
      <point x="948" y="888"/>
      <point x="910" y="840"/>
      <point x="840" y="840" type="curve" smooth="yes"/>
      <point x="666" y="840" type="line"/>
    </contour>
    <contour>
      <point x="84" y="0" type="curve"/>
      <point x="544" y="0" type="line"/>
      <point x="574" y="142"/>
      <point x="600" y="262"/>
      <point x="638" y="440" type="curve"/>
      <point x="724" y="844" type="line"/>
      <point x="764" y="1032"/>
      <point x="790" y="1154"/>
      <point x="822" y="1304" type="curve"/>
      <point x="380" y="1380" type="line"/>
      <point x="348" y="1232"/>
      <point x="324" y="1120"/>
      <point x="282" y="922" type="curve"/>
      <point x="178" y="440" type="line"/>
      <point x="140" y="262"/>
      <point x="114" y="142"/>
    </contour>
    <contour>
      <point x="-20" y="170" type="line"/>
      <point x="130" y="170"/>
      <point x="272" y="170"/>
      <point x="396" y="170" type="curve"/>
      <point x="524" y="170" type="line"/>
      <point x="648" y="170"/>
      <point x="790" y="170"/>
      <point x="940" y="170" type="curve"/>
      <point x="994" y="430" type="line"/>
      <point x="844" y="430"/>
      <point x="702" y="430"/>
      <point x="578" y="430" type="curve"/>
      <point x="450" y="430" type="line"/>
      <point x="326" y="430"/>
      <point x="184" y="430"/>
      <point x="34" y="430" type="curve"/>
    </contour>
  </outline>
</glyph>
<glyph name="summation" format="2">
  <advance width="1388"/>
  <unicode hex="2211"/>
  <outline>
    <contour>
      <point x="-128" y="-384" type="line"/>
      <point x="1120" y="-384" type="line"/>
      <point x="1206" y="18" type="line"/>
      <point x="1090" y="18"/>
      <point x="902" y="18"/>
      <point x="772" y="18" type="curve"/>
      <point x="532" y="18" type="line"/>
      <point x="524" y="-122" type="line"/>
      <point x="740" y="118" type="line"/>
      <point x="868" y="260"/>
      <point x="1002" y="408"/>
      <point x="1128" y="548" type="curve"/>
      <point x="1046" y="676"/>
      <point x="960" y="812"/>
      <point x="878" y="940" type="curve"/>
      <point x="736" y="1162" type="line"/>
      <point x="732" y="1024" type="line"/>
      <point x="1002" y="1024" type="line"/>
      <point x="1124" y="1024"/>
      <point x="1262" y="1024"/>
      <point x="1410" y="1024" type="curve"/>
      <point x="1496" y="1426" type="line"/>
      <point x="296" y="1426" type="line"/>
      <point x="228" y="1104" type="line"/>
      <point x="326" y="958"/>
      <point x="422" y="814"/>
      <point x="520" y="668" type="curve"/>
      <point x="710" y="384" type="line"/>
      <point x="718" y="742" type="line"/>
      <point x="444" y="438" type="line"/>
      <point x="288" y="266"/>
      <point x="66" y="20"/>
      <point x="-76" y="-138" type="curve"/>
    </contour>
  </outline>
</glyph>
<glyph name="divisionslash" format="2">
  <advance width="888"/>
  <unicode hex="2215"/>
  <outline>
    <contour>
      <point x="-74" y="0" type="curve"/>
      <point x="344" y="0" type="line"/>
      <point x="418" y="150"/>
      <point x="480" y="274"/>
      <point x="570" y="456" type="curve"/>
      <point x="812" y="946" type="line"/>
      <point x="908" y="1140"/>
      <point x="974" y="1272"/>
      <point x="1050" y="1426" type="curve"/>
      <point x="632" y="1426" type="line"/>
      <point x="556" y="1272"/>
      <point x="490" y="1140"/>
      <point x="398" y="954" type="curve"/>
      <point x="152" y="456" type="line"/>
      <point x="62" y="274"/>
      <point x="0" y="150"/>
    </contour>
  </outline>
</glyph>
<glyph name="lessequal" format="2">
  <advance width="1180"/>
  <unicode hex="2264"/>
  <guideline x="518" y="95" angle="77.8229"/>
  <outline>
    <contour>
      <point x="1086" y="426" type="curve"/>
      <point x="1168" y="806" type="line"/>
      <point x="1082" y="836"/>
      <point x="990" y="868"/>
      <point x="904" y="898" type="curve"/>
      <point x="766" y="946" type="line"/>
      <point x="772" y="978" type="line"/>
      <point x="928" y="1022" type="line"/>
      <point x="1030" y="1052"/>
      <point x="1134" y="1082"/>
      <point x="1232" y="1110" type="curve"/>
      <point x="1320" y="1530" type="line"/>
      <point x="1162" y="1478"/>
      <point x="1006" y="1426"/>
      <point x="872" y="1382" type="curve"/>
      <point x="672" y="1316" type="line"/>
      <point x="538" y="1272"/>
      <point x="382" y="1220"/>
      <point x="224" y="1168" type="curve"/>
      <point x="142" y="788" type="line"/>
      <point x="278" y="736"/>
      <point x="412" y="684"/>
      <point x="528" y="640" type="curve"/>
      <point x="700" y="574" type="line"/>
      <point x="814" y="530"/>
      <point x="950" y="478"/>
    </contour>
    <contour>
      <point x="-26" y="0" type="line"/>
      <point x="124" y="0"/>
      <point x="266" y="0"/>
      <point x="390" y="0" type="curve"/>
      <point x="578" y="0" type="line"/>
      <point x="702" y="0"/>
      <point x="844" y="0"/>
      <point x="994" y="0" type="curve"/>
      <point x="1076" y="380" type="line"/>
      <point x="926" y="380"/>
      <point x="784" y="380"/>
      <point x="660" y="380" type="curve"/>
      <point x="472" y="380" type="line"/>
      <point x="348" y="380"/>
      <point x="206" y="380"/>
      <point x="56" y="380" type="curve"/>
    </contour>
  </outline>
</glyph>
<glyph name="_Q_tail" format="2">
  <advance width="1566"/>
  <anchor x="678" y="0" name="_bottom"/>
  <outline>
    <contour>
      <point x="936" y="-360" type="curve"/>
      <point x="1364" y="-196" type="line"/>
      <point x="1276" y="-110"/>
      <point x="1200" y="-34"/>
      <point x="1116" y="48" type="curve"/>
      <point x="926" y="236" type="line"/>
      <point x="644" y="-4" type="line"/>
      <point x="756" y="-140" type="line"/>
      <point x="808" y="-202"/>
      <point x="874" y="-282"/>
    </contour>
  </outline>
</glyph>
<glyph name="_notequal" format="2">
  <advance width="1180"/>
  <outline>
    <contour>
      <point x="452" y="-58" type="line"/>
      <point x="524" y="90"/>
      <point x="588" y="224"/>
      <point x="644" y="344" type="curve"/>
      <point x="870" y="816" type="line"/>
      <point x="926" y="936"/>
      <point x="994" y="1072"/>
      <point x="1062" y="1218" type="curve"/>
      <point x="772" y="1296" type="line"/>
      <point x="704" y="1150"/>
      <point x="640" y="1014"/>
      <point x="582" y="894" type="curve"/>
      <point x="356" y="422" type="line"/>
      <point x="298" y="302"/>
      <point x="234" y="166"/>
      <point x="164" y="20" type="curve"/>
    </contour>
  </outline>
</glyph>
<glyph name="_question" format="2">
  <advance width="930"/>
  <outline>
    <contour>
      <point x="470" y="496" type="curve" smooth="yes"/>
      <point x="570" y="496"/>
      <point x="646" y="518"/>
      <point x="702" y="538" type="curve"/>
      <point x="728" y="716" type="line"/>
      <point x="696" y="700"/>
      <point x="662" y="690"/>
      <point x="638" y="690" type="curve"/>
      <point x="620" y="690"/>
      <point x="598" y="696"/>
      <point x="604" y="720" type="curve"/>
      <point x="610" y="748"/>
      <point x="662" y="778"/>
      <point x="730" y="808" type="curve" smooth="yes"/>
      <point x="848" y="862"/>
      <point x="974" y="926"/>
      <point x="1016" y="1114" type="curve" smooth="yes"/>
      <point x="1070" y="1360"/>
      <point x="900" y="1498"/>
      <point x="616" y="1498" type="curve" smooth="yes"/>
      <point x="476" y="1498"/>
      <point x="336" y="1466"/>
      <point x="234" y="1424" type="curve"/>
      <point x="176" y="1056" type="line"/>
      <point x="286" y="1112"/>
      <point x="402" y="1140"/>
      <point x="486" y="1140" type="curve"/>
      <point x="562" y="1140"/>
      <point x="586" y="1114"/>
      <point x="578" y="1078" type="curve"/>
      <point x="568" y="1036"/>
      <point x="514" y="1004"/>
      <point x="448" y="966" type="curve" smooth="yes"/>
      <point x="338" y="902"/>
      <point x="238" y="840"/>
      <point x="212" y="718" type="curve" smooth="yes"/>
      <point x="188" y="600"/>
      <point x="260" y="496"/>
    </contour>
  </outline>
</glyph>
<glyph name="circumflexcomb_hookabovecomb" format="2">
  <anchor x="706" y="1004" name="_top"/>
  <outline>
    <contour>
      <point x="862" y="1106" type="curve"/>
      <point x="1142" y="1110" type="line"/>
      <point x="1098" y="1250"/>
      <point x="1054" y="1388"/>
      <point x="1008" y="1528" type="curve"/>
      <point x="604" y="1528" type="line"/>
      <point x="692" y="1380"/>
      <point x="782" y="1240"/>
    </contour>
    <contour>
      <point x="314" y="1108" type="curve"/>
      <point x="608" y="1108" type="line"/>
      <point x="728" y="1240"/>
      <point x="860" y="1382"/>
      <point x="992" y="1528" type="curve"/>
      <point x="594" y="1528" type="line"/>
      <point x="500" y="1386"/>
      <point x="408" y="1250"/>
    </contour>
    <contour>
      <point x="1078" y="1428" type="line"/>
      <point x="1286" y="1428" type="line"/>
      <point x="1290" y="1448" type="line"/>
      <point x="1448" y="1478"/>
      <point x="1552" y="1544"/>
      <point x="1576" y="1662" type="curve" smooth="yes"/>
      <point x="1608" y="1818"/>
      <point x="1444" y="1878"/>
      <point x="1298" y="1878" type="curve" smooth="yes"/>
      <point x="1200" y="1878"/>
      <point x="1090" y="1850"/>
      <point x="1036" y="1830" type="curve"/>
      <point x="1004" y="1612" type="line"/>
      <point x="1082" y="1644"/>
      <point x="1172" y="1670"/>
      <point x="1220" y="1670" type="curve"/>
      <point x="1258" y="1670"/>
      <point x="1282" y="1646"/>
      <point x="1276" y="1620" type="curve" smooth="yes"/>
      <point x="1266" y="1580"/>
      <point x="1188" y="1550"/>
      <point x="1098" y="1522" type="curve"/>
    </contour>
  </outline>
</glyph>
<glyph name="circumflexcomb_tildecomb.case" format="2">
  <anchor x="706" y="1004" name="_top"/>
  <outline>
    <contour>
      <point x="314" y="1108" type="curve"/>
      <point x="608" y="1108" type="line"/>
      <point x="726" y="1228"/>
      <point x="854" y="1356"/>
      <point x="984" y="1490" type="curve"/>
      <point x="586" y="1490" type="line"/>
      <point x="494" y="1360"/>
      <point x="406" y="1236"/>
    </contour>
    <contour>
      <point x="862" y="1106" type="curve"/>
      <point x="1142" y="1110" type="line"/>
      <point x="1094" y="1236"/>
      <point x="1048" y="1362"/>
      <point x="1000" y="1490" type="curve"/>
      <point x="596" y="1490" type="line"/>
      <point x="686" y="1356"/>
      <point x="780" y="1228"/>
    </contour>
    <contour>
      <point x="994" y="1520" type="curve" smooth="yes"/>
      <point x="1126" y="1520"/>
      <point x="1230" y="1644"/>
      <point x="1270" y="1864" type="curve"/>
      <point x="1072" y="1864" type="line"/>
      <point x="1064" y="1836"/>
      <point x="1034" y="1784"/>
      <point x="996" y="1784" type="curve"/>
      <point x="940" y="1784"/>
      <point x="870" y="1902"/>
      <point x="716" y="1902" type="curve" smooth="yes"/>
      <point x="576" y="1902"/>
      <point x="464" y="1778"/>
      <point x="424" y="1558" type="curve"/>
      <point x="622" y="1558" type="line"/>
      <point x="634" y="1586"/>
      <point x="666" y="1638"/>
      <point x="708" y="1638" type="curve"/>
      <point x="756" y="1638"/>
      <point x="836" y="1520"/>
    </contour>
  </outline>
</glyph>
<glyph name="circumflexcomb_tildecomb" format="2">
  <anchor x="706" y="1004" name="_top"/>
  <outline>
    <contour>
      <point x="998" y="1540" type="curve" smooth="yes"/>
      <point x="1130" y="1540"/>
      <point x="1234" y="1664"/>
      <point x="1274" y="1884" type="curve"/>
      <point x="1076" y="1884" type="line"/>
      <point x="1068" y="1856"/>
      <point x="1038" y="1804"/>
      <point x="1000" y="1804" type="curve"/>
      <point x="944" y="1804"/>
      <point x="874" y="1922"/>
      <point x="720" y="1922" type="curve" smooth="yes"/>
      <point x="580" y="1922"/>
      <point x="468" y="1798"/>
      <point x="428" y="1578" type="curve"/>
      <point x="626" y="1578" type="line"/>
      <point x="638" y="1606"/>
      <point x="670" y="1658"/>
      <point x="712" y="1658" type="curve"/>
      <point x="760" y="1658"/>
      <point x="840" y="1540"/>
    </contour>
    <contour>
      <point x="314" y="1108" type="curve"/>
      <point x="608" y="1108" type="line"/>
      <point x="726" y="1228"/>
      <point x="856" y="1356"/>
      <point x="986" y="1488" type="curve"/>
      <point x="588" y="1488" type="line"/>
      <point x="496" y="1360"/>
      <point x="406" y="1236"/>
    </contour>
    <contour>
      <point x="862" y="1106" type="curve"/>
      <point x="1142" y="1110" type="line"/>
      <point x="1096" y="1236"/>
      <point x="1050" y="1362"/>
      <point x="1002" y="1488" type="curve"/>
      <point x="598" y="1488" type="line"/>
      <point x="688" y="1354"/>
      <point x="780" y="1228"/>
    </contour>
  </outline>
</glyph>
<glyph name="dblgravecomb.case" format="2">
  <anchor x="706" y="1004" name="_top"/>
  <anchor x="812" y="1514" name="top"/>
  <outline>
    <contour>
      <point x="396" y="1106" type="curve"/>
      <point x="676" y="1110" type="line"/>
      <point x="646" y="1244"/>
      <point x="610" y="1376"/>
      <point x="578" y="1512" type="curve"/>
      <point x="164" y="1502" type="line"/>
      <point x="244" y="1364"/>
      <point x="324" y="1232"/>
    </contour>
    <contour>
      <point x="862" y="1106" type="curve"/>
      <point x="1134" y="1110" type="line"/>
      <point x="1120" y="1244"/>
      <point x="1100" y="1376"/>
      <point x="1086" y="1512" type="curve"/>
      <point x="682" y="1502" type="line"/>
      <point x="744" y="1364"/>
      <point x="806" y="1232"/>
    </contour>
  </outline>
</glyph>
<glyph name="dotaccentcomb.case" format="2">
  <anchor x="386" y="1004" name="_top"/>
  <anchor x="480" y="1442" name="top"/>
  <outline>
    <contour>
      <point x="402" y="1076" type="curve" smooth="yes"/>
      <point x="554" y="1076"/>
      <point x="660" y="1112"/>
      <point x="692" y="1266" type="curve" smooth="yes"/>
      <point x="718" y="1394"/>
      <point x="640" y="1506"/>
      <point x="490" y="1506" type="curve" smooth="yes"/>
      <point x="336" y="1506"/>
      <point x="228" y="1448"/>
      <point x="200" y="1314" type="curve" smooth="yes"/>
      <point x="168" y="1158"/>
      <point x="250" y="1076"/>
    </contour>
  </outline>
</glyph>
<glyph name="five.dnom" format="2">
  <advance width="884"/>
  <outline>
    <contour>
      <point x="330" y="-32" type="curve" smooth="yes"/>
      <point x="624" y="-32"/>
      <point x="746" y="74"/>
      <point x="784" y="250" type="curve" smooth="yes"/>
      <point x="826" y="442"/>
      <point x="702" y="576"/>
      <point x="552" y="576" type="curve" smooth="yes"/>
      <point x="506" y="576"/>
      <point x="462" y="564"/>
      <point x="424" y="548" type="curve"/>
      <point x="400" y="548" type="line"/>
      <point x="408" y="582" type="line"/>
      <point x="422" y="636"/>
      <point x="440" y="702"/>
      <point x="452" y="748" type="curve"/>
      <point x="342" y="648" type="line"/>
      <point x="486" y="648" type="line"/>
      <point x="598" y="648"/>
      <point x="712" y="648"/>
      <point x="826" y="648" type="curve"/>
      <point x="884" y="924" type="line"/>
      <point x="188" y="924" type="line"/>
      <point x="162" y="802"/>
      <point x="134" y="672"/>
      <point x="106" y="540" type="curve"/>
      <point x="70" y="374" type="line"/>
      <point x="208" y="348" type="line"/>
      <point x="250" y="378"/>
      <point x="298" y="384"/>
      <point x="334" y="384" type="curve"/>
      <point x="418" y="384"/>
      <point x="444" y="342"/>
      <point x="436" y="304" type="curve" smooth="yes"/>
      <point x="428" y="264"/>
      <point x="382" y="244"/>
      <point x="314" y="244" type="curve"/>
      <point x="220" y="244"/>
      <point x="118" y="282"/>
      <point x="30" y="336" type="curve"/>
      <point x="-48" y="44" type="line"/>
      <point x="20" y="4"/>
      <point x="182" y="-32"/>
    </contour>
  </outline>
</glyph>
<glyph name="four.dnom" format="2">
  <advance width="932"/>
  <outline>
    <contour>
      <point x="338" y="0" type="curve"/>
      <point x="686" y="0" type="line"/>
      <point x="706" y="94"/>
      <point x="722" y="170"/>
      <point x="746" y="282" type="curve"/>
      <point x="812" y="594" type="line"/>
      <point x="834" y="698"/>
      <point x="858" y="810"/>
      <point x="882" y="924" type="curve"/>
      <point x="532" y="924" type="line"/>
      <point x="482" y="872"/>
      <point x="430" y="818"/>
      <point x="380" y="766" type="curve"/>
      <point x="236" y="616" type="line"/>
      <point x="164" y="542"/>
      <point x="64" y="438"/>
      <point x="4" y="376" type="curve"/>
      <point x="-42" y="156" type="line"/>
      <point x="494" y="156" type="line"/>
      <point x="592" y="156"/>
      <point x="732" y="156"/>
      <point x="820" y="156" type="curve"/>
      <point x="882" y="448" type="line"/>
      <point x="794" y="448"/>
      <point x="654" y="448"/>
      <point x="556" y="448" type="curve"/>
      <point x="522" y="408" type="line"/>
      <point x="272" y="408" type="line"/>
      <point x="278" y="388" type="line"/>
      <point x="328" y="438"/>
      <point x="382" y="494"/>
      <point x="430" y="542" type="curve"/>
      <point x="616" y="730" type="line"/>
      <point x="674" y="788"/>
      <point x="732" y="846"/>
      <point x="792" y="906" type="curve"/>
      <point x="548" y="788" type="line"/>
      <point x="530" y="702"/>
      <point x="510" y="610"/>
      <point x="492" y="524" type="curve"/>
      <point x="448" y="318" type="line"/>
      <point x="398" y="278" type="line"/>
      <point x="374" y="166"/>
      <point x="358" y="94"/>
    </contour>
  </outline>
</glyph>
<glyph name="gravecomb.case" format="2">
  <anchor x="706" y="1004" name="_top"/>
  <anchor x="810" y="1498" name="top"/>
  <outline>
    <contour>
      <point x="672" y="1106" type="curve"/>
      <point x="972" y="1110" type="line"/>
      <point x="926" y="1244"/>
      <point x="876" y="1376"/>
      <point x="828" y="1512" type="curve"/>
      <point x="394" y="1502" type="line"/>
      <point x="490" y="1364"/>
      <point x="586" y="1232"/>
    </contour>
  </outline>
</glyph>
<glyph name="guarani.BRACKET.140" format="2">
  <advance width="1386"/>
  <outline>
    <contour>
      <point x="762" y="-28" type="curve" smooth="yes"/>
      <point x="918" y="-28"/>
      <point x="1100" y="0"/>
      <point x="1192" y="34" type="curve"/>
      <point x="1220" y="442" type="line"/>
      <point x="1072" y="368"/>
      <point x="962" y="338"/>
      <point x="800" y="338" type="curve"/>
      <point x="604" y="338"/>
      <point x="538" y="532"/>
      <point x="578" y="724" type="curve" smooth="yes"/>
      <point x="628" y="958"/>
      <point x="778" y="1020"/>
      <point x="904" y="1020" type="curve"/>
      <point x="996" y="1020"/>
      <point x="1144" y="992"/>
      <point x="1316" y="884" type="curve"/>
      <point x="1442" y="1306" type="line"/>
      <point x="1308" y="1364"/>
      <point x="1108" y="1412"/>
      <point x="894" y="1412" type="curve" smooth="yes"/>
      <point x="464" y="1412"/>
      <point x="198" y="1210"/>
      <point x="106" y="780" type="curve" smooth="yes"/>
      <point x="14" y="352"/>
      <point x="214" y="-28"/>
    </contour>
    <contour>
      <point x="752" y="24" type="curve"/>
      <point x="1192" y="34" type="line"/>
      <point x="1220" y="170"/>
      <point x="1244" y="284"/>
      <point x="1268" y="398" type="curve"/>
      <point x="1296" y="530"/>
      <point x="1316" y="626"/>
      <point x="1338" y="732" type="curve"/>
      <point x="900" y="732" type="line"/>
      <point x="878" y="626"/>
      <point x="858" y="530"/>
      <point x="830" y="398" type="curve"/>
      <point x="806" y="282"/>
      <point x="782" y="168"/>
    </contour>
    <contour>
      <point x="448" y="-274" type="curve"/>
      <point x="768" y="-274" type="line"/>
      <point x="802" y="-112"/>
      <point x="834" y="38"/>
      <point x="866" y="186" type="curve"/>
      <point x="546" y="186" type="line"/>
      <point x="514" y="38"/>
      <point x="482" y="-112"/>
    </contour>
    <contour>
      <point x="764" y="1208" type="curve"/>
      <point x="1084" y="1208" type="line"/>
      <point x="1110" y="1334"/>
      <point x="1138" y="1466"/>
      <point x="1168" y="1606" type="curve"/>
      <point x="848" y="1606" type="line"/>
      <point x="818" y="1466"/>
      <point x="790" y="1334"/>
    </contour>
  </outline>
</glyph>
<glyph name="hungarumlautcomb.case" format="2">
  <anchor x="706" y="1004" name="_top"/>
  <anchor x="812" y="1514" name="top"/>
  <outline>
    <contour>
      <point x="766" y="1106" type="curve"/>
      <point x="1084" y="1110" type="line"/>
      <point x="1216" y="1236"/>
      <point x="1362" y="1372"/>
      <point x="1508" y="1512" type="curve"/>
      <point x="1062" y="1502" type="line"/>
      <point x="964" y="1370"/>
      <point x="866" y="1238"/>
    </contour>
    <contour>
      <point x="302" y="1106" type="curve"/>
      <point x="598" y="1110" type="line"/>
      <point x="716" y="1236"/>
      <point x="846" y="1372"/>
      <point x="976" y="1512" type="curve"/>
      <point x="552" y="1502" type="line"/>
      <point x="470" y="1370"/>
      <point x="388" y="1238"/>
    </contour>
  </outline>
</glyph>
<glyph name="macroncomb.narrow" format="2">
  <anchor x="706" y="1004" name="_top"/>
  <anchor x="796" y="1434" name="top"/>
  <outline>
    <contour>
      <point x="420" y="1126" type="line"/>
      <point x="514" y="1126"/>
      <point x="618" y="1126"/>
      <point x="732" y="1126" type="curve"/>
      <point x="846" y="1126"/>
      <point x="950" y="1126"/>
      <point x="1044" y="1126" type="curve"/>
      <point x="1112" y="1446" type="line"/>
      <point x="1018" y="1446"/>
      <point x="914" y="1446"/>
      <point x="800" y="1446" type="curve"/>
      <point x="686" y="1446"/>
      <point x="582" y="1446"/>
      <point x="488" y="1446" type="curve"/>
    </contour>
  </outline>
</glyph>
<glyph name="peso.BRACKET.140" format="2">
  <advance width="1620"/>
  <outline>
    <contour>
      <point x="616" y="410" type="line"/>
      <point x="690" y="410"/>
      <point x="814" y="410"/>
      <point x="908" y="410" type="curve"/>
      <point x="1234" y="410"/>
      <point x="1398" y="556"/>
      <point x="1462" y="852" type="curve" smooth="yes"/>
      <point x="1544" y="1232"/>
      <point x="1372" y="1380"/>
      <point x="1022" y="1380" type="curve"/>
      <point x="752" y="1380"/>
      <point x="530" y="1380"/>
      <point x="420" y="1380" type="curve"/>
      <point x="774" y="1028" type="line"/>
      <point x="918" y="1028" type="line" smooth="yes"/>
      <point x="980" y="1028"/>
      <point x="1010" y="970"/>
      <point x="988" y="868" type="curve" smooth="yes"/>
      <point x="966" y="764"/>
      <point x="930" y="738"/>
      <point x="860" y="738" type="curve" smooth="yes"/>
      <point x="686" y="738" type="line"/>
    </contour>
    <contour>
      <point x="124" y="0" type="curve"/>
      <point x="584" y="0" type="line"/>
      <point x="614" y="142"/>
      <point x="640" y="262"/>
      <point x="678" y="440" type="curve"/>
      <point x="764" y="844" type="line"/>
      <point x="804" y="1032"/>
      <point x="830" y="1154"/>
      <point x="862" y="1304" type="curve"/>
      <point x="420" y="1380" type="line"/>
      <point x="388" y="1232"/>
      <point x="364" y="1120"/>
      <point x="322" y="922" type="curve"/>
      <point x="218" y="440" type="line"/>
      <point x="180" y="262"/>
      <point x="154" y="142"/>
    </contour>
    <contour>
      <point x="76" y="624" type="line"/>
      <point x="224" y="624"/>
      <point x="364" y="624"/>
      <point x="488" y="624" type="curve"/>
      <point x="534" y="844" type="line"/>
      <point x="410" y="844"/>
      <point x="270" y="844"/>
      <point x="122" y="844" type="curve"/>
    </contour>
    <contour>
      <point x="140" y="922" type="line"/>
      <point x="288" y="922"/>
      <point x="428" y="922"/>
      <point x="552" y="922" type="curve"/>
      <point x="598" y="1142" type="line"/>
      <point x="474" y="1142"/>
      <point x="334" y="1142"/>
      <point x="186" y="1142" type="curve"/>
    </contour>
    <contour>
      <point x="1180" y="624" type="line"/>
      <point x="1304" y="624"/>
      <point x="1446" y="624"/>
      <point x="1596" y="624" type="curve"/>
      <point x="1642" y="844" type="line"/>
      <point x="1492" y="844"/>
      <point x="1350" y="844"/>
      <point x="1226" y="844" type="curve"/>
    </contour>
    <contour>
      <point x="1244" y="922" type="line"/>
      <point x="1368" y="922"/>
      <point x="1510" y="922"/>
      <point x="1660" y="922" type="curve"/>
      <point x="1706" y="1142" type="line"/>
      <point x="1556" y="1142"/>
      <point x="1414" y="1142"/>
      <point x="1290" y="1142" type="curve"/>
    </contour>
  </outline>
</glyph>
<glyph name="tildecomb.case" format="2">
  <anchor x="706" y="1004" name="_top"/>
  <anchor x="808" y="1494" name="top"/>
  <outline>
    <contour>
      <point x="928" y="1078" type="curve" smooth="yes"/>
      <point x="1072" y="1078"/>
      <point x="1186" y="1220"/>
      <point x="1230" y="1474" type="curve"/>
      <point x="1014" y="1474" type="line"/>
      <point x="1004" y="1440"/>
      <point x="972" y="1380"/>
      <point x="930" y="1380" type="curve"/>
      <point x="868" y="1380"/>
      <point x="792" y="1516"/>
      <point x="624" y="1516" type="curve" smooth="yes"/>
      <point x="470" y="1516"/>
      <point x="348" y="1374"/>
      <point x="304" y="1120" type="curve"/>
      <point x="520" y="1120" type="line"/>
      <point x="534" y="1154"/>
      <point x="568" y="1214"/>
      <point x="614" y="1214" type="curve"/>
      <point x="668" y="1214"/>
      <point x="754" y="1078"/>
    </contour>
  </outline>
</glyph>
<glyph name="tildecomb.narrow" format="2">
  <anchor x="706" y="1004" name="_top"/>
  <anchor x="808" y="1494" name="top"/>
  <outline>
    <contour>
      <point x="906" y="1078" type="curve" smooth="yes"/>
      <point x="1036" y="1078"/>
      <point x="1148" y="1220"/>
      <point x="1196" y="1474" type="curve"/>
      <point x="984" y="1474" type="line"/>
      <point x="976" y="1440"/>
      <point x="944" y="1380"/>
      <point x="916" y="1380" type="curve"/>
      <point x="868" y="1380"/>
      <point x="798" y="1516"/>
      <point x="648" y="1516" type="curve" smooth="yes"/>
      <point x="506" y="1516"/>
      <point x="388" y="1374"/>
      <point x="340" y="1120" type="curve"/>
      <point x="552" y="1120" type="line"/>
      <point x="564" y="1154"/>
      <point x="596" y="1214"/>
      <point x="630" y="1214" type="curve"/>
      <point x="670" y="1214"/>
      <point x="748" y="1078"/>
    </contour>
  </outline>
</glyph>
